<svg xmlns="http://www.w3.org/2000/svg" xmlns:xlink="http://www.w3.org/1999/xlink" viewBox="0 0 236.96 236.96"><defs><style>.cls-1,.cls-4{fill:none;}.cls-2{clip-path:url(#clip-path);}.cls-3,.cls-4{stroke:#fff;stroke-miterlimit:10;}.cls-3{stroke-width:0.39px;fill:url(#linear-gradient);}.cls-4{stroke-linecap:round;stroke-width:6.49px;}</style><clipPath id="clip-path" transform="translate(14.57 14.56)"><path class="cls-1" d="M103.91,0A103.93,103.93,0,1,0,207.84,103.92,103.92,103.92,0,0,0,103.91,0Zm0,201.11a97.19,97.19,0,1,1,97.19-97.19A97.18,97.18,0,0,1,103.91,201.11Z"/></clipPath><linearGradient id="linear-gradient" x1="0.2" y1="118.48" x2="236.77" y2="118.48" gradientUnits="userSpaceOnUse"><stop offset="0" stop-color="#f05b80"/><stop offset="1" stop-color="#4158f0"/></linearGradient></defs><g id="Layer_2" data-name="Layer 2"><g id="Layer_1-2" data-name="Layer 1"><g class="cls-2"><rect class="cls-3" x="0.2" y="0.2" width="236.57" height="236.57"/></g><g id="Dollars_2" data-name="Dollars 2"><line class="cls-4" x1="121.73" y1="63.28" x2="121.73" y2="173.69"/><path class="cls-4" d="M74.39,127.08c0,12.56,13.29,22.31,29.52,22.31h0c16.24,0,29.23-9.75,29.23-22.31a19.69,19.69,0,0,0-7.5-15,26.5,26.5,0,0,0-13-5.65l-15.23-2.54a31.6,31.6,0,0,1-10.56-3.24A21.6,21.6,0,0,1,74.3,82.16c0-12.43,13-22.53,29.22-22.53,13.32,0,24.55,6.72,28.13,16" transform="translate(14.57 14.56)"/></g></g></g></svg>