<svg id="Home" xmlns="http://www.w3.org/2000/svg" xmlns:xlink="http://www.w3.org/1999/xlink" viewBox="0 0 689.84 792"><defs><style>.cls-1{fill:url(#linear-gradient);}.cls-2{fill:url(#linear-gradient-2);}.cls-3{fill:url(#linear-gradient-3);}.cls-4{fill:url(#linear-gradient-4);}.cls-5{fill:url(#linear-gradient-5);}.cls-6{fill:url(#linear-gradient-6);}.cls-7{fill:url(#linear-gradient-7);}.cls-8{fill:url(#linear-gradient-8);}.cls-9{fill:url(#linear-gradient-9);}.cls-10{fill:url(#linear-gradient-10);}.cls-11{fill:url(#linear-gradient-11);}.cls-12{fill:url(#linear-gradient-12);}.cls-13{fill:url(#linear-gradient-13);}.cls-14{fill:url(#linear-gradient-14);}.cls-15{fill:url(#linear-gradient-15);}.cls-16{fill:url(#linear-gradient-16);}.cls-17{fill:url(#linear-gradient-17);}.cls-18{fill:url(#linear-gradient-18);}.cls-19{fill:url(#linear-gradient-19);}.cls-20{fill:url(#linear-gradient-20);}.cls-21{fill:url(#linear-gradient-21);}.cls-22{fill:url(#linear-gradient-22);}.cls-23{fill:url(#linear-gradient-23);}.cls-24{fill:url(#linear-gradient-24);}.cls-25{fill:url(#linear-gradient-25);}.cls-26{fill:url(#linear-gradient-26);}.cls-27{fill:none;}.cls-28{fill:#fff;}.cls-29{clip-path:url(#clip-path);}.cls-30{clip-path:url(#clip-path-2);}.cls-31{mask:url(#mask);}.cls-32{clip-path:url(#clip-path-3);}.cls-33{mask:url(#mask-2);}.cls-34{clip-path:url(#clip-path-4);}.cls-35{mask:url(#mask-3);}.cls-36{clip-path:url(#clip-path-5);}.cls-37{mask:url(#mask-4);}.cls-38{clip-path:url(#clip-path-6);}.cls-39{mask:url(#mask-5);}.cls-40{clip-path:url(#clip-path-7);}.cls-41{mask:url(#mask-6);}.cls-42{clip-path:url(#clip-path-8);}.cls-43{mask:url(#mask-7);}.cls-44{clip-path:url(#clip-path-9);}.cls-45{mask:url(#mask-8);}.cls-46{clip-path:url(#clip-path-10);}.cls-47{mask:url(#mask-9);}.cls-48{clip-path:url(#clip-path-11);}.cls-49{mask:url(#mask-10);}.cls-50{clip-path:url(#clip-path-12);}.cls-51{mask:url(#mask-11);}.cls-52{clip-path:url(#clip-path-13);}.cls-53{mask:url(#mask-12);}.cls-54{clip-path:url(#clip-path-14);}.cls-55{mask:url(#mask-13);}.cls-56{clip-path:url(#clip-path-15);}.cls-57{mask:url(#mask-14);}.cls-58{clip-path:url(#clip-path-16);}.cls-59{mask:url(#mask-15);}.cls-60{clip-path:url(#clip-path-17);}.cls-61{mask:url(#mask-16);}.cls-62{clip-path:url(#clip-path-18);}.cls-63{mask:url(#mask-17);}.cls-64{clip-path:url(#clip-path-19);}.cls-65{mask:url(#mask-18);}.cls-66{clip-path:url(#clip-path-20);}.cls-67{mask:url(#mask-19);}.cls-68{clip-path:url(#clip-path-21);}.cls-69{mask:url(#mask-20);}.cls-70{clip-path:url(#clip-path-22);}.cls-71{mask:url(#mask-21);}.cls-72{clip-path:url(#clip-path-23);}.cls-73{mask:url(#mask-22);}.cls-74{clip-path:url(#clip-path-24);}.cls-75{mask:url(#mask-23);}.cls-76{clip-path:url(#clip-path-25);}.cls-77{mask:url(#mask-24);}.cls-78{clip-path:url(#clip-path-26);}.cls-79{mask:url(#mask-25);}.cls-80{clip-path:url(#clip-path-27);}.cls-81{mask:url(#mask-26);}.cls-82{clip-path:url(#clip-path-28);}.cls-83{clip-path:url(#clip-path-29);}.cls-84{clip-path:url(#clip-path-30);}.cls-85{clip-path:url(#clip-path-31);}.cls-86{clip-path:url(#clip-path-32);}.cls-87{clip-path:url(#clip-path-33);}.cls-88{clip-path:url(#clip-path-34);}.cls-89{clip-path:url(#clip-path-35);}.cls-90{clip-path:url(#clip-path-36);}.cls-91{clip-path:url(#clip-path-37);}.cls-92{clip-path:url(#clip-path-38);}.cls-93{clip-path:url(#clip-path-39);}.cls-94{clip-path:url(#clip-path-40);}.cls-95{clip-path:url(#clip-path-41);}</style><linearGradient id="linear-gradient" x1="-5860.25" y1="5471.8" x2="-5261.02" y2="5852.76" gradientTransform="translate(6366.1 5906.66) rotate(90)" gradientUnits="userSpaceOnUse"><stop offset="0" stop-color="#fff"/><stop offset="1"/></linearGradient><linearGradient id="linear-gradient-2" x1="-5861.67" y1="5465.57" x2="-5262.44" y2="5846.54" gradientTransform="translate(6357.36 5906.49) rotate(90)" xlink:href="#linear-gradient"/><linearGradient id="linear-gradient-3" x1="-5881.13" y1="5400.03" x2="-5281.9" y2="5781" gradientTransform="translate(6275.78 5915.74) rotate(90)" xlink:href="#linear-gradient"/><linearGradient id="linear-gradient-4" x1="-5885.96" y1="5395.04" x2="-5286.74" y2="5776.01" gradientTransform="translate(6266.32 5917.73) rotate(90)" xlink:href="#linear-gradient"/><linearGradient id="linear-gradient-5" x1="-5890.98" y1="5389.94" x2="-5291.75" y2="5770.91" gradientTransform="translate(6256.78 5919.92) rotate(90)" xlink:href="#linear-gradient"/><linearGradient id="linear-gradient-6" x1="-5896.19" y1="5384.74" x2="-5296.96" y2="5765.7" gradientTransform="translate(6247.14 5922.31) rotate(90)" xlink:href="#linear-gradient"/><linearGradient id="linear-gradient-7" x1="-5901.59" y1="5379.42" x2="-5302.36" y2="5760.38" gradientTransform="translate(6237.41 5924.91) rotate(90)" xlink:href="#linear-gradient"/><linearGradient id="linear-gradient-8" x1="-5907.19" y1="5373.96" x2="-5307.96" y2="5754.94" gradientTransform="translate(6227.58 5927.73) rotate(90)" xlink:href="#linear-gradient"/><linearGradient id="linear-gradient-9" x1="-5913.02" y1="5368.4" x2="-5313.77" y2="5749.36" gradientTransform="translate(6217.64 5930.77) rotate(90)" xlink:href="#linear-gradient"/><linearGradient id="linear-gradient-10" x1="-5919.02" y1="5362.7" x2="-5319.8" y2="5743.67" gradientTransform="translate(6207.6 5934.03) rotate(90)" xlink:href="#linear-gradient"/><linearGradient id="linear-gradient-11" x1="-5925.27" y1="5356.87" x2="-5326.04" y2="5737.85" gradientTransform="translate(6197.45 5937.51) rotate(90)" xlink:href="#linear-gradient"/><linearGradient id="linear-gradient-12" x1="-5931.71" y1="5350.94" x2="-5332.48" y2="5731.9" gradientTransform="translate(6187.18 5941.22) rotate(90)" xlink:href="#linear-gradient"/><linearGradient id="linear-gradient-13" x1="-5863.1" y1="5458.91" x2="-5263.87" y2="5839.89" gradientTransform="translate(6348.57 5906.55) rotate(90)" xlink:href="#linear-gradient"/><linearGradient id="linear-gradient-14" x1="-5938.38" y1="5344.84" x2="-5339.16" y2="5725.81" gradientTransform="translate(6176.8 5945.15) rotate(90)" xlink:href="#linear-gradient"/><linearGradient id="linear-gradient-15" x1="-5945.26" y1="5338.62" x2="-5346.03" y2="5719.6" gradientTransform="translate(6166.3 5949.3) rotate(90)" xlink:href="#linear-gradient"/><linearGradient id="linear-gradient-16" x1="-5952.35" y1="5332.29" x2="-5353.13" y2="5713.26" gradientTransform="translate(6155.68 5953.68) rotate(90)" xlink:href="#linear-gradient"/><linearGradient id="linear-gradient-17" x1="-5959.67" y1="5325.81" x2="-5360.44" y2="5706.77" gradientTransform="translate(6144.93 5958.27) rotate(90)" xlink:href="#linear-gradient"/><linearGradient id="linear-gradient-18" x1="-5967.19" y1="5319.2" x2="-5367.96" y2="5700.16" gradientTransform="translate(6134.05 5963.08) rotate(90)" xlink:href="#linear-gradient"/><linearGradient id="linear-gradient-19" x1="-5974.92" y1="5312.45" x2="-5375.69" y2="5693.42" gradientTransform="translate(6123.04 5968.1) rotate(90)" xlink:href="#linear-gradient"/><linearGradient id="linear-gradient-20" x1="-5864.45" y1="5451.67" x2="-5265.22" y2="5832.65" gradientTransform="translate(6339.71 5906.88) rotate(90)" xlink:href="#linear-gradient"/><linearGradient id="linear-gradient-21" x1="-5865.66" y1="5443.76" x2="-5266.43" y2="5824.72" gradientTransform="translate(6330.79 5907.46) rotate(90)" xlink:href="#linear-gradient"/><linearGradient id="linear-gradient-22" x1="-5866.64" y1="5434.99" x2="-5267.41" y2="5815.97" gradientTransform="translate(6321.81 5908.3) rotate(90)" xlink:href="#linear-gradient"/><linearGradient id="linear-gradient-23" x1="-5867.24" y1="5425.11" x2="-5268.01" y2="5806.07" gradientTransform="translate(6312.75 5909.41) rotate(90)" xlink:href="#linear-gradient"/><linearGradient id="linear-gradient-24" x1="-5867.6" y1="5414.41" x2="-5268.37" y2="5795.37" gradientTransform="translate(6303.63 5910.77) rotate(90)" xlink:href="#linear-gradient"/><linearGradient id="linear-gradient-25" x1="-5871.96" y1="5409.71" x2="-5272.73" y2="5790.67" gradientTransform="translate(6294.42 5912.27) rotate(90)" xlink:href="#linear-gradient"/><linearGradient id="linear-gradient-26" x1="-5876.47" y1="5404.91" x2="-5277.24" y2="5785.89" gradientTransform="translate(6285.14 5913.92) rotate(90)" xlink:href="#linear-gradient"/><clipPath id="clip-path"><rect class="cls-27" x="-398.43" width="1088.27" height="792" rx="9.67"/></clipPath><clipPath id="clip-path-2"><path id="SVGID" class="cls-28" d="M708.78,518.94c-41.67.49-72.92,12.26-94,31.24-17.63,15.85-28.19,36.75-31.83,60.31s-.35,49.8,9.68,76.32c17.8,47,56.83,94.94,116.17,130.52v.47c-59.54-35.64-98.7-83.69-116.54-130.85-10.07-26.59-13.36-52.89-9.71-76.53s14.25-44.62,32-60.54c21.17-19,52.51-30.85,94.29-31.35Zm0-459-4.44.75c-84.77,13.82-109.14,40.74-96.77,75.46,10.86,30.47,49.89,67,101.21,105.92v.5c-51.5-39.07-90.69-75.69-101.59-106.28-12.47-35,12-62.12,97.08-76l4.51-.76Z"/></clipPath><mask id="mask" x="578.88" y="59.51" width="129.9" height="758.3" maskUnits="userSpaceOnUse"><rect class="cls-1" x="581.09" y="59.51" width="127.69" height="758.3"/></mask><clipPath id="clip-path-3"><path id="SVGID-2" data-name="SVGID" class="cls-28" d="M708.78,518.39q-3.69,0-7.51-.11c-43.11-1.18-75.63,9.82-97.73,28.65-18,15.38-29.16,36-33.43,59.43s-1.7,49.77,7.63,76.55c17.68,50.81,59.64,103.3,125.17,141.23l5.87,3.42V828l-6.08-3.54c-65.62-38-107.63-90.56-125.35-141.44-9.34-26.85-11.92-53.23-7.64-76.76s15.44-44.23,33.57-59.67c22.17-18.89,54.78-29.93,98-28.74,2.55.07,5,.1,7.5.11Zm0-458.75-2.55.36C621.12,71.54,596,97.79,607.47,132.84c10.23,31.35,49.58,69.75,101.31,111v.52C656.87,203,617.36,164.45,607.09,133c-11.53-35.33,13.63-61.78,99.08-73.37l2.61-.37Z"/></clipPath><mask id="mask-2" x="565.43" y="59.23" width="143.35" height="768.8" maskUnits="userSpaceOnUse"><rect class="cls-2" x="567.7" y="59.23" width="141.08" height="768.8"/></mask><clipPath id="clip-path-4"><path id="SVGID-3" data-name="SVGID" class="cls-28" d="M708.78,518.2q-8.64.12-18-.38c-43.07-2.35-75.87,7.78-98.47,26-18.46,14.88-30.12,35.18-35,58.51s-3,49.71,5.57,76.73c16.32,51.26,56.85,104.86,121.34,144.53q12.66,7.78,24.58,15.57v.48q-12-7.85-24.8-15.7c-64.57-39.74-105.16-93.41-121.5-144.76-8.62-27.08-10.5-53.53-5.58-76.93s16.62-43.8,35.16-58.75c22.67-18.29,55.56-28.45,98.74-26.1q9.36.51,18,.38Zm0-458.46-.75.09C622.64,69.08,596.87,94.65,607.36,130c9.57,32.26,49.27,72.68,101.42,116.28v.53C656.44,203.07,616.59,162.51,607,130.11,596.4,94.48,622.25,68.72,708,59.43l.79-.09Z"/></clipPath><mask id="mask-3" x="551.98" y="59.34" width="156.8" height="780.31" maskUnits="userSpaceOnUse"><rect class="cls-13" x="554.23" y="59.34" width="154.55" height="780.31"/></mask><clipPath id="clip-path-5"><path id="SVGID-4" data-name="SVGID" class="cls-28" d="M708.78,518.26a244.17,244.17,0,0,1-28.59-.75c-43-3.49-76.05,5.75-99.13,23.36-18.85,14.39-31,34.37-36.57,57.55S540.12,648,548,675.28C562.92,727,602,781.62,665.4,823c15.31,10,29.83,20,43.38,29.86v.5c-13.62-9.94-28.2-20-43.6-30-63.49-41.45-102.62-96.2-117.57-148-7.9-27.31-9.06-53.79-3.52-77.06s17.79-43.33,36.73-57.78c23.15-17.67,56.31-26.95,99.4-23.44a245.86,245.86,0,0,0,28.56.75Zm0-458c-84.84,7.06-111.07,31.87-101.57,67.35,8.9,33.21,49,75.76,101.57,121.87V250c-52.78-46.24-93-88.94-102-122.29-9.58-35.77,16.74-60.78,102-67.87Z"/></clipPath><mask id="mask-4" x="538.55" y="59.83" width="170.23" height="793.53" maskUnits="userSpaceOnUse"><rect class="cls-20" x="540.66" y="59.83" width="168.12" height="793.53"/></mask><clipPath id="clip-path-6"><path id="SVGID-5" data-name="SVGID" class="cls-28" d="M708.78,518.52a230.83,230.83,0,0,1-39.27-1.14c-42.88-4.66-76.17,3.69-99.72,20.68-19.23,13.88-32,33.52-38.1,56.55s-5.7,49.48,1.44,76.92c13.54,52.06,51.13,107.76,113.4,150.84,22.76,15.74,43.69,31.38,62.25,46.69v.52c-18.62-15.36-39.63-31.07-62.48-46.88-62.35-43.14-100-98.92-113.56-151.07-7.16-27.51-7.61-54-1.45-77.12s19-42.84,38.26-56.78c23.63-17,57-25.42,100-20.75a230.19,230.19,0,0,0,39.22,1.13Zm0-457.4c-83.74,5-110.24,29-101.75,64.52,8.18,34.18,48.69,79,101.75,127.76V254c-53.25-48.89-93.93-93.88-102.14-128.22-8.56-35.79,18-60,102.14-65Z"/></clipPath><mask id="mask-5" x="525.13" y="60.72" width="183.65" height="808.86" maskUnits="userSpaceOnUse"><rect class="cls-21" x="527" y="60.72" width="181.78" height="808.86"/></mask><clipPath id="clip-path-7"><path id="SVGID-6" data-name="SVGID" class="cls-28" d="M708.78,518.86c-14.65,1.47-31.29,1.09-50-1.46-42.74-5.8-76.25,1.65-100.24,18-19.6,13.36-32.85,32.65-39.61,55.51s-7,49.3-.62,76.93c12.13,52.4,48.22,109.09,109.31,153.82,31.08,22.77,58.62,45.23,81.2,66.73v.55c-22.61-21.56-50.25-44.1-81.44-67C566.17,777.19,530,720.42,517.87,667.93c-6.41-27.7-6.15-54.2.63-77.14s20.09-42.31,39.77-55.72C582.34,518.66,616,511.18,658.79,517c18.74,2.54,35.37,2.93,50,1.46Zm0-456.45c-82.71,3-109.47,26.21-102,61.71,7.43,35.21,48.43,82.48,102,134v.56C655,207,613.87,159.57,606.4,124.21,598.85,88.41,625.71,65,708.78,62Z"/></clipPath><mask id="mask-6" x="511.46" y="62.01" width="197.32" height="826.93" maskUnits="userSpaceOnUse"><rect class="cls-22" x="513.23" y="62.01" width="195.55" height="826.93"/></mask><clipPath id="clip-path-8"><path id="SVGID-7" data-name="SVGID" class="cls-28" d="M708.78,519.19c-17.2,2.55-37.44,2.22-60.92-1.61-42.56-7-76.26-.4-100.68,15.3-19.95,12.83-33.72,31.76-41.09,54.43s-8.34,49.1-2.69,76.88c10.73,52.72,45.28,110.35,105.14,156.71,40.92,31.69,75.48,62.67,100.24,91.22v.62C684,884.11,649.37,853,608.3,821.22c-59.95-46.43-94.55-104.15-105.29-157-5.67-27.85-4.7-54.34,2.7-77.09s21.22-41.76,41.25-54.64c24.5-15.75,58.29-22.32,101-15.36,23.46,3.83,43.68,4.16,60.85,1.6Zm0-455.07c-81.72,1-108.78,23.43-102.28,58.93,6.65,36.28,48.21,86.17,102.28,140.7v.57c-54.26-54.68-96-104.76-102.68-141.2-6.55-35.79,20.61-58.43,102.68-59.41Z"/></clipPath><mask id="mask-7" x="497.34" y="63.71" width="211.44" height="849.02" maskUnits="userSpaceOnUse"><rect class="cls-23" x="499.36" y="63.71" width="209.42" height="849.02"/></mask><clipPath id="clip-path-9"><path id="SVGID-8" data-name="SVGID" class="cls-28" d="M708.78,519.33c-19.5,4.14-43.36,4-71.9-1.41-42.36-8.09-76.22-2.45-101.06,12.59-20.28,12.28-34.56,30.84-42.53,53.3s-9.66,48.86-4.75,76.79c9.3,53,42.3,111.52,100.89,159.47,52.13,42.65,93.51,83.81,116.69,119.49h-.48C682.45,904,641.17,862.92,589.18,820.38c-58.68-48-91.72-106.64-101-159.71-4.92-28-3.23-54.46,4.77-77s22.33-41.18,42.7-53.51c24.92-15.09,58.88-20.76,101.35-12.65,28.53,5.45,52.36,5.54,71.82,1.4Zm0-453.09c-80.81-1-108.17,20.69-102.65,56.18,5.68,36.53,46,87.67,98.82,143.77q1.93,2.07,3.83,4.15v.6q-2-2.25-4.12-4.47c-52.82-56.16-93.23-107.37-98.93-144-5.56-35.78,21.9-57.64,103-56.65Z"/></clipPath><mask id="mask-8" x="483.22" y="64.84" width="225.56" height="874.73" maskUnits="userSpaceOnUse"><rect class="cls-24" x="485.38" y="65.8" width="223.4" height="873.76"/></mask><clipPath id="clip-path-10"><path id="SVGID-9" data-name="SVGID" class="cls-28" d="M708.78,519.1c-21.49,6.34-49,6.75-83-.69-42.14-9.22-76.14-4.49-101.37,9.87-20.61,11.74-35.37,29.9-43.95,52.14s-11,48.58-6.81,76.63c7.88,53.22,39.29,112.62,96.58,162.13,49.93,43.15,89.59,84.59,112.08,120.38h-.48c-22.48-35.7-62.06-77-111.86-120.08-57.37-49.57-88.82-109.07-96.72-162.37-4.16-28.12-1.77-54.52,6.84-76.83s23.43-40.57,44.12-52.35c25.32-14.41,59.41-19.16,101.65-9.92,34,7.44,61.46,7,82.9.67Zm0-450.32c-80-3-107.66,18-103.11,53.44,4.7,36.67,43.69,88.88,94.93,146.38q4.2,4.72,8.18,9.57v.64q-4.11-5-8.48-9.94C649,211.31,610,159,605.27,122.28c-4.58-35.77,23.2-56.86,103.51-53.9Z"/></clipPath><mask id="mask-9" x="469.11" y="65.42" width="239.67" height="874.15" maskUnits="userSpaceOnUse"><rect class="cls-25" x="471.28" y="68.1" width="237.5" height="871.46"/></mask><clipPath id="clip-path-11"><path id="SVGID-10" data-name="SVGID" class="cls-28" d="M708.78,518.23l-1.46.58c-23,8.82-53.62,9.9-92.73.23-41.87-10.34-76-6.53-101.59,7.16-20.92,11.17-36.16,28.94-45.33,50.94s-12.27,48.27-8.87,76.42C465.25,707,495.05,767.19,551,818.22c47.87,43.66,85.88,85.41,107.61,121.34h-.47c-21.73-35.85-59.66-77.49-107.41-121-56-51.09-85.86-111.41-92.32-164.9-3.41-28.23-.3-54.55,8.9-76.63s24.51-39.92,45.51-51.14c25.69-13.73,59.91-17.56,101.88-7.19,39,9.65,69.61,8.58,92.48-.21l1.61-.64Zm0-446.47C629.55,66.85,601.53,87,605.11,122.47c3.71,36.78,41.29,90,91,148.87q6.66,7.91,12.7,16.11v.68q-6.16-8.42-13-16.53C646,212.69,608.43,159.38,604.71,122.51c-3.61-35.75,24.52-56.08,104.07-51.16Z"/></clipPath><mask id="mask-10" x="454.99" y="66.43" width="253.79" height="873.13" maskUnits="userSpaceOnUse"><rect class="cls-26" x="457.06" y="70.62" width="251.73" height="868.94"/></mask><clipPath id="clip-path-12"><path id="SVGID-11" data-name="SVGID" class="cls-28" d="M708.78,516.35A84.81,84.81,0,0,1,696,522.09c-23.17,8.2-53.86,8.46-92.7-2.26-41.57-11.47-75.78-8.57-101.74,4.42-21.21,10.61-36.93,28-46.69,49.71s-13.55,47.92-10.91,76.15c5,53.56,33.19,114.57,87.74,167.08,45.9,44.18,82.33,86.27,103.26,122.37h-.47c-20.93-36-57.28-78-103.07-122.08-54.63-52.58-82.84-113.68-87.86-167.33-2.65-28.3,1.16-54.54,10.94-76.36s25.58-39.24,46.88-49.9c26-13,60.35-15.95,102-4.45,38.75,10.69,69.36,10.44,92.46,2.27a84.19,84.19,0,0,0,12.94-5.82Zm0-441.17c-78.57-6.87-106.95,12.51-104.34,48,2.73,36.87,38.86,91.09,86.94,151.26,6.25,7.83,12.06,15.88,17.4,24.07v.74q-8.14-12.54-17.72-24.56c-48.12-60.22-84.29-114.52-87-151.48-2.64-35.73,25.86-55.28,104.74-48.4Z"/></clipPath><mask id="mask-11" x="440.88" y="67.89" width="267.9" height="871.67" maskUnits="userSpaceOnUse"><rect class="cls-3" x="442.71" y="73.4" width="266.07" height="866.16"/></mask><clipPath id="clip-path-13"><path id="SVGID-12" data-name="SVGID" class="cls-28" d="M708.78,512.9a80.9,80.9,0,0,1-24.34,12.61c-23.39,7.57-54.07,7-92.6-4.75-41.26-12.58-75.53-10.6-101.83,1.69-21.49,10-37.67,26.95-48,48.43s-14.83,47.54-12.95,75.84c3.57,53.67,30.1,115.41,83.22,169.37,44,44.73,78.94,87.18,99.05,123.47h-.46C590.75,903.35,555.92,861,512,816.37c-53.19-54-79.76-115.86-83.33-169.63-1.89-28.36,2.62-54.48,13-76s26.62-38.55,48.2-48.63c26.39-12.33,60.76-14.32,102.11-1.71,38.45,11.73,69,12.3,92.37,4.75a80.21,80.21,0,0,0,24.46-12.73Zm0-433.85c-78-8.85-106.79,9.76-105.13,45.19,1.74,36.93,36.4,92.11,82.85,153.54a309,309,0,0,1,22.28,33.92v.82A304.8,304.8,0,0,0,686.17,278c-46.49-61.5-81.18-116.74-82.92-153.77-1.67-35.72,27.22-54.49,105.53-45.62Z"/></clipPath><mask id="mask-12" x="426.76" y="69.77" width="282.02" height="869.79" maskUnits="userSpaceOnUse"><rect class="cls-4" x="428.23" y="76.46" width="280.55" height="863.1"/></mask><clipPath id="clip-path-14"><path id="SVGID-13" data-name="SVGID" class="cls-28" d="M708.78,507a78.21,78.21,0,0,1-36.07,22.07c-23.58,7-54.24,5.55-92.44-7.23-40.9-13.68-75.21-12.62-101.84-1.05-21.75,9.46-38.37,25.94-49.28,47.13S413,615,414.16,643.37c2.13,53.75,27,116.18,78.65,171.54,42.26,45.3,75.68,88.14,94.94,124.65h-.46c-19.25-36.43-52.61-79.17-94.78-124.37-51.72-55.44-76.62-118-78.75-171.8-1.13-28.41,4.08-54.4,15-75.66s27.64-37.82,49.48-47.32c26.72-11.61,61.12-12.68,102.13,1,38.12,12.75,68.69,14.14,92.2,7.22a77.85,77.85,0,0,0,36.18-22.28Zm0-423.61c-77.55-10.86-106.76,7-106,42.39.74,37,33.91,93.05,78.69,155.71a305.16,305.16,0,0,1,27.36,46.41v.94a304.62,304.62,0,0,0-27.69-47.11c-44.82-62.72-78-118.88-78.76-155.94-.72-35.71,28.6-53.7,106.45-42.81Z"/></clipPath><mask id="mask-13" x="412.63" y="72.08" width="296.15" height="867.48" maskUnits="userSpaceOnUse"><rect class="cls-5" x="413.61" y="79.81" width="295.17" height="859.75"/></mask><clipPath id="clip-path-15"><path id="SVGID-14" data-name="SVGID" class="cls-28" d="M708.78,496.94a78.12,78.12,0,0,1-48,35.81c-23.76,6.3-54.36,4.09-92.21-9.71-40.52-14.78-74.85-14.64-101.78-3.78-22,8.87-39.05,24.89-50.53,45.78s-17.37,46.68-17,75c.68,53.79,23.86,116.87,74,173.6,40.58,45.89,72.57,89.15,90.94,125.89h-.45c-18.37-36.67-50.3-79.83-90.79-125.63-50.21-56.81-73.42-120-74.11-173.85-.36-28.43,5.54-54.27,17.06-75.23s28.65-37.06,50.73-46c27-10.89,61.44-11,102.07,3.78,37.76,13.77,68.29,16,92,9.69a77.71,77.71,0,0,0,48.09-36.2Zm0-408.75c-77.21-12.93-106.87,4.11-107.12,39.53-.25,37,31.4,93.93,74.49,157.77a303.49,303.49,0,0,1,32.63,63.13v1.16a301.92,301.92,0,0,0-33-64.06c-43.13-63.91-74.8-120.93-74.55-158,.24-35.71,30-52.9,107.52-39.94Z"/></clipPath><mask id="mask-14" x="398.5" y="74.82" width="310.28" height="864.75" maskUnits="userSpaceOnUse"><rect class="cls-6" x="398.85" y="83.48" width="309.94" height="856.09"/></mask><clipPath id="clip-path-16"><path id="SVGID-15" data-name="SVGID" class="cls-28" d="M708.78,478.13A102.4,102.4,0,0,1,698,501.47a78.12,78.12,0,0,1-49.31,35.09c-23.92,5.67-54.45,2.63-91.92-12.18-40.11-15.87-74.42-16.65-101.63-6.52-22.23,8.28-39.71,23.84-51.75,44.42s-18.61,46.19-19,74.54c-.76,53.79,20.71,117.46,69.32,175.52,38.95,46.52,69.56,90.22,87,127.22h-.44c-17.46-36.92-48-80.54-86.89-127C404.7,754.46,383.2,690.7,384,636.82c.4-28.43,7-54.1,19.06-74.75s29.64-36.27,52-44.58c27.3-10.17,61.71-9.39,101.92,6.51,37.38,14.78,67.84,17.81,91.68,12.16a77.73,77.73,0,0,0,49.06-34.91,102.4,102.4,0,0,0,11.14-24.46Zm0-384.64c-77-15.06-107.15,1.17-108.34,36.61C599.2,167,629.3,224.83,670.66,289.8a297.05,297.05,0,0,1,38.12,88.52v1.74a296,296,0,0,0-38.46-90c-41.4-65-71.53-122.89-70.28-159.94,1.2-35.72,31.48-52.11,108.74-37Z"/></clipPath><mask id="mask-15" x="383.2" y="77.97" width="325.59" height="861.59" maskUnits="userSpaceOnUse"><rect class="cls-7" x="383.94" y="87.46" width="324.85" height="852.1"/></mask><clipPath id="clip-path-17"><path id="SVGID-16" data-name="SVGID" class="cls-28" d="M708.78,99.29C631.9,82,601.2,97.42,599.05,132.88c-2.24,36.9,26.31,95.47,65.9,161.54,29.33,48.92,43.29,103,40.84,148.16-1.36,24.88-7.7,47.05-19.21,64.16a78.13,78.13,0,0,1-50.23,33.75c-24.06,5-54.51,1.17-91.56-14.65-39.67-16.93-73.95-18.63-101.42-9.23-22.44,7.67-40.34,22.76-52.92,43s-19.85,45.67-21,74c-2.2,53.75,17.56,118,64.59,177.32,37.38,47.17,66.64,91.35,83.18,128.62h-.44c-16.54-37.2-45.75-81.29-83.06-128.37-47.1-59.42-66.88-123.74-64.67-177.58,1.16-28.4,8.45-53.89,21.07-74.21s30.6-35.47,53.13-43.17c27.56-9.43,61.94-7.73,101.71,9.24,37,15.78,67.33,19.63,91.32,14.62a77.71,77.71,0,0,0,50-33.58c11.46-17,17.78-39.14,19.13-63.95,2.46-45.07-11.49-99.08-40.77-147.94-39.63-66.12-68.21-124.77-66-161.76,2.16-35.75,33-51.31,110.13-34Z"/></clipPath><mask id="mask-16" x="366.83" y="81.55" width="341.95" height="858.01" maskUnits="userSpaceOnUse"><rect class="cls-8" x="368.87" y="91.78" width="339.91" height="847.78"/></mask><clipPath id="clip-path-18"><path id="SVGID-17" data-name="SVGID" class="cls-28" d="M708.78,105.62c-76.9-19.61-108.19-5.05-111.3,30.45-3.23,36.83,23.74,96.15,61.54,163.25,28,49.69,40.51,104.14,36.84,149.21-2,24.84-9,46.83-20.91,63.62a78.21,78.21,0,0,1-51.12,32.39c-24.19,4.37-54.52-.3-91.14-17.1-39.2-18-73.42-20.62-101.14-12-22.63,7.07-40.93,21.67-54.05,41.57s-21.07,45.13-23,73.42c-3.64,53.67,14.38,118.41,59.8,179,35.88,47.86,63.82,92.55,79.41,130.1h-.44C477.69,902.08,449.8,857.47,414,809.7,368.51,749,350.46,684.21,354.11,630.45c1.92-28.37,9.89-53.65,23.05-73.62s31.54-34.63,54.27-41.73c27.81-8.69,62.13-6.06,101.43,12,36.53,16.77,66.78,21.43,90.9,17.07a77.74,77.74,0,0,0,50.86-32.23c11.91-16.73,18.82-38.65,20.84-63.41,3.66-45-8.83-99.36-36.79-149C620.83,232.35,593.84,173,597.08,136c3.13-35.78,34.54-50.49,111.7-30.83Z"/></clipPath><mask id="mask-17" x="350.46" y="85.55" width="358.32" height="854.02" maskUnits="userSpaceOnUse"><rect class="cls-9" x="353.65" y="96.43" width="355.13" height="843.13"/></mask><clipPath id="clip-path-19"><path id="SVGID-18" data-name="SVGID" class="cls-28" d="M708.78,112.5c-77.06-22.07-109-8.39-113.06,27.17-4.21,36.73,21.15,96.75,57.14,164.84,26.66,50.43,37.7,105.19,32.82,150.15-2.69,24.77-10.21,46.57-22.62,63a78.17,78.17,0,0,1-52,31c-24.3,3.72-54.49-1.76-90.64-19.54-38.7-19-72.84-22.58-100.78-14.67-22.82,6.46-41.5,20.56-55.15,40.11s-22.27,44.54-24.95,72.77c-5.09,53.55,11.19,118.75,55,180.52,34.43,48.59,61.06,93.82,75.69,131.67h-.44c-14.61-37.79-41.21-82.94-75.58-131.43-43.84-61.87-60.14-127.16-55-180.8,2.69-28.3,11.33-53.36,25-73s32.46-33.77,55.37-40.26c28-7.94,62.27-4.39,101.07,14.69C556.7,546.54,586.81,552,611,548.3a77.74,77.74,0,0,0,51.71-30.86c12.36-16.4,19.86-38.13,22.54-62.83,4.87-44.88-6.16-99.55-32.78-149.91-36-68.16-61.4-128.25-57.18-165.07,4.11-35.84,36.15-49.67,113.46-27.55Z"/></clipPath><mask id="mask-18" x="334.07" y="89.96" width="374.71" height="849.6" maskUnits="userSpaceOnUse"><rect class="cls-10" x="338.27" y="101.43" width="370.52" height="838.14"/></mask><clipPath id="clip-path-20"><path id="SVGID-19" data-name="SVGID" class="cls-28" d="M708.78,120c-77.35-24.67-110-11.91-115,23.72-5.19,36.6,18.55,97.28,52.7,166.31,25.29,51.13,34.86,106.17,28.77,151-3.35,24.7-11.45,46.28-24.3,62.41A78.15,78.15,0,0,1,598.15,553c-24.39,3.07-54.43-3.22-90.09-22-38.17-20.07-72.21-24.52-100.35-17.37-23,5.85-42,19.45-56.21,38.61S328,596.17,324.61,624.31c-6.52,53.4,8,119,50.1,181.94,33,49.34,58.38,95.15,72,133.31h-.43c-13.63-38.1-39-83.83-71.91-133.09-42.16-63-56.71-128.72-50.17-182.2,3.44-28.22,12.75-53,27-72.27s33.35-32.9,56.43-38.77c28.23-7.18,62.37-2.71,100.64,17.4,35.58,18.71,65.54,25,89.85,21.93a77.72,77.72,0,0,0,52.51-29.46c12.8-16.06,20.88-37.58,24.22-62.2,6.08-44.73-3.48-99.68-28.74-150.74-34.18-69.1-57.94-129.85-52.73-166.55,5.1-35.9,37.83-48.81,115.42-24.09Z"/></clipPath><mask id="mask-19" x="317.67" y="94.8" width="391.11" height="844.76" maskUnits="userSpaceOnUse"><rect class="cls-11" x="322.71" y="106.77" width="386.07" height="832.8"/></mask><clipPath id="clip-path-21"><path id="SVGID-20" data-name="SVGID" class="cls-28" d="M708.78,128C631,100.53,597.65,112.33,591.6,148.06c-6.18,36.44,15.92,97.74,48.21,167.67,23.91,51.78,32,107.06,24.71,151.69-4,24.59-12.7,45.95-26,61.72A78.1,78.1,0,0,1,585,557.32c-24.47,2.41-54.32-4.68-89.46-24.38-37.63-21.08-71.53-26.45-99.85-20.05-23.14,5.22-42.55,18.3-57.23,37.08s-24.63,43.29-28.82,71.33c-7.95,53.21,4.81,119.18,45.21,183.22,31.63,50.14,55.73,96.55,68.34,135h-.42c-12.61-38.42-36.68-84.76-68.27-134.83C314,740.61,301.27,674.54,309.23,621.24c4.2-28.11,14.18-52.67,28.91-71.51s34.22-32,57.45-37.24c28.41-6.42,62.41-1,100.13,20.1,35.07,19.65,64.84,26.73,89.23,24.33a77.73,77.73,0,0,0,53.29-28c13.22-15.71,21.88-37,25.88-61.53,7.27-44.55-.81-99.74-24.68-151.45C607.12,245.9,585,184.53,591.2,148c6.1-36,39.56-47.94,117.58-20.44Z"/></clipPath><mask id="mask-20" x="301.27" y="100.05" width="407.51" height="839.52" maskUnits="userSpaceOnUse"><rect class="cls-12" x="306.98" y="112.44" width="401.8" height="827.12"/></mask><clipPath id="clip-path-22"><path id="SVGID-21" data-name="SVGID" class="cls-28" d="M708.78,136.65c-78.36-30.44-112.5-19.65-119.57,16.19C582.05,189.1,602.5,251,632.9,321.74,655.41,374.15,662,429.62,653.53,474c-4.68,24.47-13.93,45.6-27.62,61a78.16,78.16,0,0,1-54.29,26.72c-24.53,1.76-54.18-6.14-88.78-26.77-37-22.09-70.79-28.36-99.28-22.73-23.26,4.61-43,17.16-58.19,35.54s-25.79,42.61-30.73,70.53c-9.38,53,1.6,119.26,40.27,184.36,30.28,51,53.13,98,64.7,136.86h-.42c-11.57-38.76-34.39-85.74-64.63-136.65-38.72-65.19-49.71-131.58-40.32-184.64,5-28,15.58-52.27,30.81-70.72s35.08-31,58.44-35.68c28.57-5.65,62.42.64,99.55,22.79,34.53,20.58,64.1,28.46,88.55,26.71a77.75,77.75,0,0,0,54-26.59c13.64-15.36,22.86-36.41,27.52-60.82,8.47-44.34,1.87-99.72-20.61-152.06-30.42-70.84-50.88-132.78-43.71-169.14,7.12-36.11,41.39-47,120-16.55Z"/></clipPath><mask id="mask-21" x="284.85" y="105.72" width="423.93" height="833.84" maskUnits="userSpaceOnUse"><rect class="cls-14" x="291.08" y="118.47" width="417.7" height="821.1"/></mask><clipPath id="clip-path-23"><path id="SVGID-22" data-name="SVGID" class="cls-28" d="M708.78,146l-.08,0c-79-33.62-114-23.9-122.12,12.07s10.66,98.45,39.14,170c21.1,53,26.21,108.63,16.54,152.8C636.93,505.15,627.12,526,613,541.05a78.12,78.12,0,0,1-55,25.26c-24.56,1.1-54-7.59-88-29.14-36.43-23.08-70-30.26-98.62-25.39-23.38,4-43.47,16-59.14,34s-26.91,41.91-32.61,69.68c-10.79,52.7-1.59,119.27,35.31,185.38,28.95,51.88,50.56,99.61,61.06,138.76h-.41c-10.51-39.09-32.09-86.76-61-138.56-37-66.21-46.16-132.87-35.35-185.66,5.7-27.85,17-51.84,32.7-69.86s35.89-30.1,59.37-34.1c28.72-4.88,62.38,2.31,98.91,25.45,34,21.5,63.31,30.17,87.79,29.08a77.74,77.74,0,0,0,54.72-25.13c14-15,23.83-35.79,29.14-60.06,9.66-44.1,4.56-99.64-16.51-152.56C596.84,256.53,578,194.07,586.19,157.91s43.29-46.1,122.59-12.39Z"/></clipPath><mask id="mask-22" x="268.42" y="111.81" width="440.37" height="827.76" maskUnits="userSpaceOnUse"><rect class="cls-15" x="274.99" y="124.83" width="433.79" height="814.74"/></mask><clipPath id="clip-path-24"><path id="SVGID-23" data-name="SVGID" class="cls-28" d="M708.78,156l-2.66-1.2C628,119,592.79,127.8,583.72,163.53s8,98.71,34.56,171c19.67,53.54,23.28,109.29,12.43,153.18-6,24.19-16.35,44.79-30.85,59.44a78.12,78.12,0,0,1-55.65,23.77c-24.58.44-53.77-9-87.22-31.49-35.8-24.05-69.16-32.13-97.91-28-23.48,3.35-43.88,14.83-60,32.36s-28,41.17-34.47,68.78c-12.2,52.39-4.8,119.18,30.32,186.26,27.64,52.82,48,101.26,57.41,140.75h-.42c-9.4-39.44-29.74-87.81-57.35-140.56C259.39,731.83,252,664.94,264.2,612.46c6.45-27.68,18.37-51.36,34.56-69S335.45,514.37,359,511c28.83-4.11,62.29,4,98.19,28.09,33.37,22.41,62.48,31.87,87,31.43a77.76,77.76,0,0,0,55.37-23.65c14.45-14.6,24.79-35.13,30.75-59.25,10.83-43.83,7.22-99.49-12.42-152.95-26.57-72.37-43.68-135.32-34.57-171.25s44.53-44.93,123-9.05l2.49,1.13Z"/></clipPath><mask id="mask-23" x="251.97" y="118.5" width="456.81" height="821.06" maskUnits="userSpaceOnUse"><rect class="cls-16" x="258.71" y="131.53" width="450.07" height="808.04"/></mask><clipPath id="clip-path-25"><path id="SVGID-24" data-name="SVGID" class="cls-28" d="M708.78,166.62q-2.76-1.31-5.58-2.68c-77.12-37.81-112.57-30-122.59,5.5s5.35,98.88,30,171.87c18.22,54.05,20.33,109.87,8.31,153.46-6.63,24-17.55,44.33-32.44,58.59a78.13,78.13,0,0,1-56.27,22.27c-24.59-.22-53.51-10.48-86.34-33.83-35.14-25-68.28-34-97.12-30.64-23.56,2.72-44.26,13.64-60.87,30.74s-29.13,40.39-36.3,67.83c-13.61,52-8,119,25.3,187,26.35,53.8,45.46,103,53.74,142.83h-.42c-8.28-39.78-27.37-88.91-53.68-142.65-33.35-68.09-39-135.15-25.33-187.28,7.19-27.51,19.74-50.86,36.4-68s37.46-28.13,61.11-30.86c28.94-3.34,62.17,5.65,97.41,30.71,32.75,23.3,61.6,33.53,86.1,33.75a77.77,77.77,0,0,0,56-22.15c14.83-14.21,25.72-34.45,32.33-58.41,12-43.51,9.89-99.25-8.31-153.22-24.62-73.06-40-136.45-30-172.11s45.72-43.72,123.15-5.75c1.82.89,3.62,1.75,5.41,2.6Z"/></clipPath><mask id="mask-24" x="235.52" y="125.61" width="473.27" height="813.96" maskUnits="userSpaceOnUse"><rect class="cls-17" x="242.25" y="138.56" width="466.54" height="801"/></mask><clipPath id="clip-path-26"><path id="SVGID-25" data-name="SVGID" class="cls-28" d="M708.78,178q-4.37-2.16-8.86-4.51c-76.07-39.87-111.72-33-122.69,2.2s2.7,99,25.33,172.61c16.77,54.53,17.38,110.39,4.19,153.64-7.27,23.83-18.73,43.84-34,57.69a78,78,0,0,1-56.84,20.75c-24.57-.88-53.21-11.9-85.4-36.13-34.46-25.93-67.34-35.79-96.27-33.24-23.62,2.08-44.61,12.45-61.67,29.1s-30.2,39.6-38.11,66.83c-15,51.66-11.19,118.74,20.27,187.61,25.06,54.85,42.91,104.82,50,145h-.41c-7.12-40.13-25-90-50-144.83-31.51-69-35.32-136.15-20.3-187.9,7.93-27.29,21.1-50.3,38.22-67s38.2-27.12,61.92-29.21c29-2.56,62,7.32,96.54,33.32,32.12,24.17,60.68,35.17,85.17,36a77.71,77.71,0,0,0,56.56-20.65c15.21-13.8,26.64-33.74,33.88-57.51,13.17-43.18,12.56-98.95-4.18-153.4C579.52,274.74,565.82,211,576.85,175.58s46.88-42.47,123.26-2.44c2.93,1.54,5.82,3,8.67,4.42Z"/></clipPath><mask id="mask-25" x="219.05" y="133.11" width="489.74" height="806.46" maskUnits="userSpaceOnUse"><rect class="cls-18" x="225.58" y="145.93" width="483.2" height="793.63"/></mask><clipPath id="clip-path-27"><path id="SVGID-26" data-name="SVGID" class="cls-28" d="M708.78,190.12q-6.12-3.15-12.49-6.71c-75-41.89-110.79-36-122.7-1.09s0,99,20.68,173.23c15.3,55,14.41,110.81.07,153.69-7.91,23.63-19.91,43.33-35.54,56.77a78.14,78.14,0,0,1-57.38,19.21c-24.54-1.54-52.87-13.33-84.4-38.41C383.27,520,350.66,509.22,321.68,511c-23.67,1.45-44.93,11.24-62.43,27.43S228,577.2,219.36,604.21C203,655.45,205,722.61,234.59,792.3c23.76,55.94,40.34,106.74,46.25,147.26h-.41c-5.91-40.47-22.47-91.21-46.21-147.1C204.57,722.68,202.57,655.41,219,604.09c8.65-27.08,22.44-49.72,40-66s38.91-26.08,62.68-27.54c29.07-1.77,61.77,9,95.61,35.91,31.46,25,59.71,36.78,84.17,38.32a77.76,77.76,0,0,0,57.1-19.12c15.57-13.39,27.53-33,35.41-56.59,14.33-42.8,15.21-98.57-.06-153.45-20.67-74.27-32.66-138.39-20.69-173.47s48-41.2,123.29.87q6.27,3.51,12.29,6.6Z"/></clipPath><mask id="mask-26" x="202.57" y="140.99" width="506.22" height="798.57" maskUnits="userSpaceOnUse"><rect class="cls-19" x="208.71" y="153.63" width="500.07" height="785.93"/></mask><clipPath id="clip-path-28"><path id="SVGID-27" data-name="SVGID" class="cls-28" d="M539.09-189.63c14.27,42.06,20.57,76.87,16.84,104.77C549.12-34,509-6.07,423.16,1.08c-85.59,7.14-112,32.06-102.38,67.65s55.36,82.11,113.93,132.12c43.39,37,73.86,83.86,85.91,127.44,6.65,24,7.7,47,2.24,66.93a78.1,78.1,0,0,1-36.86,48c-21.21,12.43-51.3,18.48-91.46,15.29-43-3.41-76,5.9-99.08,23.56-18.82,14.42-31,34.43-36.46,57.62s-4.26,49.62,3.67,76.85c15,51.65,54.22,106.23,117.7,147.5,64.86,42.16,115.43,83.91,139.8,120.48,11.7,17.56,17.37,33.94,15.69,48.59a42.61,42.61,0,0,1-1.25,6.46h-.42a40.6,40.6,0,0,0,1.27-6.5c1.67-14.56-4-30.84-15.63-48.33C495.49,848.22,445,806.5,380.15,764.37c-63.57-41.32-102.81-96-117.87-147.73-7.95-27.29-9.16-53.77-3.67-77s17.7-43.37,36.61-57.85c23.12-17.72,56.25-27.06,99.36-23.64,40.07,3.18,70.07-2.85,91.21-15.24a77.75,77.75,0,0,0,36.68-47.75c5.44-19.8,4.39-42.77-2.24-66.72-12-43.5-42.46-90.25-85.78-127.23-58.63-50.06-104.4-96.54-114.06-132.33s16.8-61,102.74-68.15c85.65-7.14,125.62-34.95,132.4-85.59,3.73-27.87-2.59-62.66-16.86-104.72Z"/></clipPath><clipPath id="clip-path-29"><path id="SVGID-28" data-name="SVGID" class="cls-28" d="M545.28-189.63C559-146,564.7-110.15,560.13-81.78c-8.17,50.65-49,77.5-135,82.35-85.75,4.83-112.81,29-104.16,64.87S374.07,149,431.28,200.57c42.38,38.18,71.58,85.81,82.46,129.7,6,24.18,6.43,47.24.44,67a78.12,78.12,0,0,1-38.14,47c-21.53,11.86-51.77,17.09-91.83,12.83-42.89-4.57-76.17,3.85-99.68,20.89-19.2,13.91-31.9,33.58-38,56.62s-5.59,49.49,1.6,76.92c13.64,52,51.35,107.65,113.7,150.61C425.55,806,475,849.07,498.35,886.28c11.23,17.87,16.46,34.39,14.39,49q-.32,2.18-.84,4.29h-.41a42.12,42.12,0,0,0,.85-4.34c2.06-14.51-3.15-30.94-14.33-48.73-23.35-37.16-72.73-80.21-136.4-124.07-62.43-43-100.2-98.72-113.86-150.84-7.21-27.49-7.72-54-1.6-77.12s18.86-42.88,38.14-56.85c23.59-17.09,57-25.54,100-21,40,4.25,70.13-1,91.6-12.78a77.72,77.72,0,0,0,37.94-46.75c6-19.65,5.54-42.64-.44-66.76-10.86-43.81-40-91.36-82.34-129.49-57.26-51.61-101.77-99.31-110.46-135.34S339,5,425.08.16c85.81-4.83,126.51-31.57,134.65-82,4.57-28.34-1.13-64.17-14.87-107.79Z"/></clipPath><clipPath id="clip-path-30"><path id="SVGID-29" data-name="SVGID" class="cls-28" d="M551.21-189.63c13.26,45.47,18.36,82.54,12.89,111.48C554.58-27.74,513.05-2,426.91.54c-85.85,2.53-113.55,26-105.86,62.05s50.86,85,106.68,138C469.06,240,497,288.34,506.67,332.5c5.34,24.34,5.16,47.4-1.36,66.95a78.12,78.12,0,0,1-39.38,45.95c-21.85,11.28-52.22,15.7-92.15,10.36-42.75-5.71-76.24,1.81-100.2,18.2-19.57,13.4-32.79,32.72-39.5,55.59s-6.92,49.32-.47,76.93c12.24,52.39,48.45,109,109.62,153.61,62.51,45.58,110.76,90,133.13,127.81,10.75,18.16,15.53,34.82,13.06,49.36-.13.78-.28,1.54-.45,2.3h-.42c.18-.78.34-1.57.48-2.36,2.44-14.45-2.32-31-13-49.1C453.67,850.33,405.46,806,343,760.41,281.73,715.74,245.48,659,233.22,606.57c-6.47-27.68-6.26-54.18.47-77.13s20-42.36,39.66-55.81c24-16.45,57.63-24,100.48-18.27,39.85,5.33,70.13.92,91.91-10.32a77.71,77.71,0,0,0,39.19-45.71c6.49-19.49,6.67-42.47,1.34-66.74-9.68-44.09-37.55-92.41-78.82-131.66-55.87-53.13-99.07-102-106.8-138.26S340.7,2.67,426.9.13C512.81-2.4,554.22-28,563.7-78.23c5.46-28.89.36-65.94-12.91-111.4Z"/></clipPath><clipPath id="clip-path-31"><path id="SVGID-30" data-name="SVGID" class="cls-28" d="M556.92-189.63C569.74-142,574.25-103.57,567.84-74,557-23.84,514.76.77,428.59,1c-85.89.22-114.21,22.93-107.5,59.18S369.66,146.49,424,201c40.26,40.41,66.86,89.53,75.37,133.94,4.69,24.47,3.88,47.52-3.16,66.9a78.12,78.12,0,0,1-40.6,44.87C433.5,457.43,403,461,363.25,454.63c-42.58-6.86-76.26-.24-100.65,15.51-19.93,12.86-33.66,31.82-41,54.5s-8.24,49.12-2.53,76.89c10.83,52.7,45.5,110.26,105.45,156.5C385.8,805.27,432.84,851,454.19,889.36c10.26,18.45,14.59,35.23,11.74,49.7,0,.17-.07.34-.11.5h-.41l.12-.58c2.83-14.37-1.48-31.06-11.69-49.42-21.32-38.36-68.33-84-129.54-131.21-60-46.31-94.76-104-105.61-156.74-5.72-27.84-4.8-54.33,2.54-77.09s21.14-41.81,41.15-54.72c24.47-15.81,58.25-22.45,100.94-15.57,39.68,6.39,70.08,2.8,92.15-7.84a77.75,77.75,0,0,0,40.39-44.65c7-19.31,7.82-42.28,3.14-66.68-8.49-44.34-35.06-93.38-75.26-133.73-54.42-54.61-96.29-104.63-103-141.07S342.35.82,428.59.59c85.95-.22,128-24.73,138.85-74.66,6.41-29.54,1.89-68-10.94-115.56Z"/></clipPath><clipPath id="clip-path-32"><path id="SVGID-31" data-name="SVGID" class="cls-28" d="M562.42-189.63c12.41,50,16.33,90.05,8.9,120.36C559.1-19.44,516.26,4,430.11,1.94c-85.86-2.08-114.78,19.86-109,56.28s46.24,87.57,99.12,143.57c39.16,41.47,64.44,91.29,71.75,135.91,4,24.6,2.61,47.61-4.95,66.79a78.13,78.13,0,0,1-41.79,43.77c-22.42,10.08-53,12.87-92.57,5.39-42.38-8-76.23-2.29-101,12.8-20.26,12.33-34.49,30.91-42.42,53.39s-9.56,48.87-4.6,76.79c9.41,53,42.52,111.44,101.22,159.27,60,48.87,105.76,95.81,126.07,134.77,9.51,18.24,13.44,34.74,10.63,48.89h-.41c2.82-14.07-1.09-30.51-10.58-48.7-20.28-38.92-66-85.81-126-134.64-58.77-47.9-91.93-106.46-101.36-159.52-5-28-3.34-54.44,4.62-77s22.25-41.22,42.59-53.59c24.89-15.14,58.84-20.88,101.32-12.85,39.5,7.45,70,4.68,92.33-5.37a77.72,77.72,0,0,0,41.58-43.55c7.53-19.11,8.95-42,4.93-66.57-7.3-44.55-32.54-94.29-71.65-135.7C367,146,326.44,94.89,320.67,58.28S343.91-.56,430.12,1.54C516,3.62,558.76-19.75,570.93-69.37c7.42-30.26,3.49-70.29-8.92-120.26Z"/></clipPath><clipPath id="clip-path-33"><path id="SVGID-32" data-name="SVGID" class="cls-28" d="M567.75-189.63c12,52.67,15.3,94.5,6.79,125.59-13.55,49.49-57,71.8-143.07,67.4C345.69-1,316.19,20.13,321,56.69s43.86,88.79,95.22,146.18c38,42.51,62,93,68.08,137.79,3.37,24.69,1.33,47.66-6.74,66.63a78.13,78.13,0,0,1-42.95,42.63c-22.69,9.48-53.31,11.45-92.68,2.91-42.16-9.14-76.14-4.33-101.35,10.08-20.58,11.78-35.31,30-43.84,52.23s-10.87,48.6-6.66,76.65c8,53.19,39.52,112.53,96.91,161.92,58.63,50.46,103.15,98.61,122.41,138.11,8.71,17.87,12.26,34,9.61,47.74h-.41c2.66-13.68-.87-29.74-9.57-47.56-19.23-39.45-63.71-87.55-122.3-138-57.47-49.46-89.05-108.89-97.05-162.17-4.22-28.12-1.88-54.52,6.68-76.85s23.35-40.61,44-52.44C265.62,448.1,299.7,443.28,342,452.44c39.29,8.51,69.83,6.56,92.44-2.89a77.74,77.74,0,0,0,42.74-42.42c8-18.89,10.07-41.79,6.71-66.41-6.1-44.73-30-95.13-68-137.58-51.4-57.45-90.54-109.64-95.32-146.4S345.36-1.45,431.49,3c85.83,4.39,129.17-17.83,142.66-67.1,8.5-31,5.17-72.85-6.82-125.49Z"/></clipPath><clipPath id="clip-path-34"><path id="SVGID-33" data-name="SVGID" class="cls-28" d="M572.91-189.63c11.55,55.64,14.24,99.41,4.57,131.35C562.6-9.17,518.56,12,432.65,5.26,347-1.43,317,18.93,320.74,55.6S362.2,145.53,412,204.29c36.88,43.51,59.45,94.61,64.35,139.56,2.71,24.78,0,47.68-8.52,66.43a78.15,78.15,0,0,1-44.08,41.46c-22.94,8.87-53.6,10-92.73.42-41.89-10.27-76-6.38-101.58,7.36-20.89,11.21-36.1,29-45.23,51S172.05,558.84,175.5,587C182.06,640.38,212,700.54,268,751.46c57.25,52,100.46,101.34,118.65,141.34,8,17.57,11.16,33.34,8.58,46.76h-.41c2.59-13.35-.57-29.07-8.54-46.59C368.15,853,325,803.74,267.75,751.76c-56.12-51-86.08-111.24-92.65-164.72-3.46-28.22-.42-54.55,8.74-76.65s24.43-40,45.41-51.23c25.67-13.78,59.87-17.68,101.87-7.39,39,9.56,69.62,8.43,92.48-.41a77.74,77.74,0,0,0,43.86-41.25C476,391.43,478.65,368.6,476,343.9c-4.9-44.88-27.43-95.9-64.26-139.35-49.84-58.81-87.56-112-91.35-148.91S346.7-1.86,432.68,4.85c85.69,6.7,129.6-14.35,144.41-63.24,9.66-31.89,7-75.63-4.59-131.24Z"/></clipPath><clipPath id="clip-path-35"><path id="SVGID-34" data-name="SVGID" class="cls-28" d="M577.94-189.63C589-130.73,591-84.83,580.12-52,563.93-3.31,519.34,16.64,433.64,7.62c-85.42-9-116,10.56-113.22,47.32s39,91,87.24,151.08c35.7,44.49,56.88,96.18,60.58,141.25,2,24.83-1.23,47.66-10.31,66.17a78.12,78.12,0,0,1-45.18,40.26c-23.16,8.25-53.84,8.57-92.7-2.07-41.6-11.38-75.8-8.41-101.74,4.63-21.19,10.65-36.87,28-46.58,49.8S158.27,554,161,582.24c5.12,53.55,33.41,114.49,88.07,166.89,55.84,53.54,97.71,104,114.82,144.48,7.32,17.32,10.11,32.82,7.53,45.95H371c2.59-13.07-.19-28.51-7.49-45.79-17.09-40.42-58.93-90.85-114.73-144.35C194,697,165.69,635.91,160.56,582.27c-2.7-28.29,1.05-54.53,10.8-76.38s25.49-39.29,46.77-50c26-13.09,60.32-16.07,102-4.66,38.77,10.61,69.37,10.3,92.46,2.08a77.74,77.74,0,0,0,44.95-40.06c9-18.44,12.3-41.19,10.27-66-3.7-45-24.85-96.6-60.5-141C359.09,146.15,322.82,91.93,320,55S347.91-1.81,433.68,7.22c85.48,9,129.94-10.87,146.06-59.35,10.89-32.77,8.86-78.63-2.21-137.5Z"/></clipPath><clipPath id="clip-path-36"><path id="SVGID-35" data-name="SVGID" class="cls-28" d="M582.86-189.63c10.51,62.45,11.83,110.66-.4,144.41C565,3,519.85,21.76,434.42,10.45,349.28-.83,318.17,17.89,320,54.71s36.58,92,83.16,153.37c34.49,45.43,54.28,97.68,56.76,142.82,1.38,24.88-2.51,47.62-12.08,65.87a78.13,78.13,0,0,1-46.24,39c-23.37,7.62-54.06,7.12-92.61-4.56-41.28-12.5-75.55-10.45-101.83,1.89-21.47,10.09-37.61,27-47.9,48.54s-14.75,47.57-12.81,75.86c3.69,53.66,30.34,115.35,83.57,169.2,54.38,55,94.88,106.59,110.9,147.51,6.71,17.14,9.12,32.42,6.47,45.31h-.42c2.67-12.82.27-28.06-6.43-45.17C324.51,853.53,284,802,229.7,747c-53.3-53.92-80-115.7-83.68-169.46-1.94-28.36,2.51-54.49,12.84-76.06s26.54-38.6,48.1-48.72c26.37-12.38,60.73-14.45,102.11-1.92,38.48,11.65,69.08,12.16,92.37,4.56a77.7,77.7,0,0,0,46-38.83c9.54-18.19,13.41-40.85,12-65.66-2.48-45.08-22.24-97.24-56.69-142.6-46.61-61.4-81.42-116.58-83.23-153.6S349-1.28,434.48,10.05c85.2,11.28,130.18-7.38,147.59-55.41,12.22-33.7,10.89-81.86.38-144.27Z"/></clipPath><clipPath id="clip-path-37"><path id="SVGID-36" data-name="SVGID" class="cls-28" d="M587.69-189.63c9.87,66.3,10.43,117-3.22,151.69C565.69,9.81,520.09,27.34,435,13.73,350.19.17,318.59,18.05,319.4,54.91s34.09,93,79,155.55c33.26,46.34,51.64,99.09,52.92,144.29.7,24.91-3.79,47.53-13.85,65.52a78.1,78.1,0,0,1-47.27,37.78c-23.57,7-54.23,5.66-92.46-7-40.93-13.6-75.24-12.47-101.84-.84-21.73,9.5-38.32,26-49.19,47.23s-16,47.15-14.83,75.49c2.23,53.74,27.22,116.12,79,171.38,52.89,56.45,92,109.1,106.9,150.43,6.15,17,8.19,32.17,5.39,44.86h-.41c2.81-12.62.78-27.71-5.36-44.72-14.89-41.28-54-93.88-106.81-150.3-51.84-55.33-76.86-117.8-79.1-171.64-1.18-28.4,4-54.4,14.88-75.69s27.57-37.87,49.39-47.41c26.69-11.67,61.09-12.81,102.13.83,38.14,12.67,68.72,14,92.21,7a77.72,77.72,0,0,0,47-37.58c10-17.93,14.49-40.48,13.79-65.32-1.27-45.12-19.62-97.79-52.84-144.07C353.12,148.06,319.81,92,319,54.92S349.9-.28,435.06,13.33c84.87,13.57,130.34-3.87,149-51.42,13.63-34.64,13.06-85.28,3.19-151.54Z"/></clipPath><clipPath id="clip-path-38"><path id="SVGID-37" data-name="SVGID" class="cls-28" d="M592.45-189.63c9.12,70.45,8.84,123.79-6.3,159.46C566.1,17.06,520,33.35,435.34,17.47,350.92,1.64,318.86,18.66,318.68,55.53s31.59,93.86,74.8,157.61c32,47.22,49,100.45,49,145.66,0,24.92-5.06,47.41-15.6,65.13a78.12,78.12,0,0,1-48.27,36.5c-23.75,6.36-54.36,4.2-92.24-9.53-40.55-14.69-74.87-14.48-101.78-3.57-22,8.92-39,25-50.44,45.89s-17.27,46.71-16.85,75.06c.79,53.79,24.09,116.82,74.36,173.45C243,799.58,280.7,853.25,294.5,895c5.63,17,7.28,32.06,4.28,44.59h-.42c3-12.47,1.37-27.47-4.25-44.46C280.33,853.43,242.69,799.81,191.37,742c-50.33-56.7-73.66-119.82-74.46-173.7-.42-28.42,5.44-54.28,16.91-75.26s28.57-37.12,50.64-46.07c27-10.95,61.42-11.17,102.07,3.56,37.79,13.7,68.32,15.85,92,9.52a77.74,77.74,0,0,0,48-36.32c10.5-17.65,15.58-40.07,15.55-64.92-.06-45.14-17-98.28-49-145.43-43.26-63.82-75-120.78-74.87-157.84S350.65,1.18,435.42,17.07c84.47,15.84,130.39-.37,150.35-47.4,15.13-35.61,15.39-88.9,6.27-159.3Z"/></clipPath><clipPath id="clip-path-39"><path id="SVGID-38" data-name="SVGID" class="cls-28" d="M597.15-189.63c8.25,74.9,7.07,131.06-9.67,167.71-21.32,46.67-67.79,61.73-152,43.58-84-18.1-116.48-1.94-117.64,34.91s29.05,94.67,70.54,159.56c30.72,48.06,46.24,101.72,45.09,146.93-.64,24.91-6.34,47.25-17.34,64.68a78.13,78.13,0,0,1-49.24,35.19c-23.91,5.72-54.45,2.74-91.94-12-40.14-15.78-74.46-16.49-101.65-6.3-22.21,8.32-39.67,23.92-51.66,44.52s-18.52,46.23-18.86,74.58c-.65,53.79,21,117.42,69.68,175.38,49.78,59.21,86,113.88,98.67,155.95,5.14,17.08,6.41,32.09,3.13,44.5h-.42c3.29-12.35,2-27.33-3.1-44.38-12.66-42-48.85-96.64-98.59-155.81-48.79-58-70.42-121.77-69.77-175.64.34-28.43,6.88-54.12,18.91-74.79s29.57-36.33,51.87-44.69c27.28-10.22,61.69-9.51,101.93,6.31,37.41,14.7,67.88,17.68,91.71,12a77.73,77.73,0,0,0,49-35c11-17.37,16.65-39.64,17.29-64.48,1.15-45.13-14.35-98.71-45-146.7C346.48,151.4,316.23,93.6,317.4,56.55S351.23,3.09,435.53,21.26c84,18.1,130.36,3.12,151.58-43.35,16.71-36.58,17.88-92.69,9.64-167.54Z"/></clipPath><clipPath id="clip-path-40"><path id="SVGID-39" data-name="SVGID" class="cls-28" d="M601.84-189.63c7.2,79.64,5,138.8-13.39,176.43C565.89,32.88,519,46.68,435.3,26.28,351.86,5.94,318.92,21.22,316.77,58s26.5,95.42,66.23,161.4c29.42,48.87,43.49,102.93,41.13,148.08-1.31,24.89-7.6,47.07-19.07,64.2a78.14,78.14,0,0,1-50.17,33.85c-24.05,5.08-54.5,1.28-91.59-14.46-39.7-16.85-74-18.48-101.44-9-22.42,7.72-40.29,22.84-52.83,43.12s-19.76,45.71-20.86,74.05C86.08,613,106,677.16,153.11,736.41,201.28,796.94,236,852.56,247.56,895c4.69,17.23,5.55,32.28,1.93,44.6h-.42c3.63-12.27,2.78-27.29-1.9-44.5-11.52-42.34-46.23-97.91-94.37-158.4-47.22-59.32-67.13-123.61-65-177.45,1.1-28.4,8.34-53.91,20.92-74.25s30.52-35.53,53-43.28c27.54-9.49,61.93-7.85,101.73,9,37,15.71,67.37,19.49,91.35,14.44a77.7,77.7,0,0,0,49.91-33.69c11.43-17.06,17.7-39.17,19-64,2.37-45.08-11.69-99.05-41.07-147.85C342.89,153.58,314.2,95,316.36,58s35.25-52.54,119-32.11c83.5,20.35,130.22,6.62,152.68-39.27,18.39-37.56,20.56-96.66,13.35-176.25Z"/></clipPath><clipPath id="clip-path-41"><path id="SVGID-40" data-name="SVGID" class="cls-28" d="M606.52-189.63c6,84.68,2.72,147-17.48,185.61-23.78,45.46-71,58-154.15,35.35C352,8.76,318.69,23.15,315.55,59.88S339.48,156,377.42,223c28.1,49.64,40.72,104.06,37.14,149.14-2,24.84-8.86,46.84-20.79,63.66a78.1,78.1,0,0,1-51,32.49c-24.18,4.43-54.52-.18-91.17-16.91-39.23-17.91-73.46-20.47-101.16-11.75-22.62,7.11-40.89,21.75-54,41.68s-21,45.17-22.84,73.46C70,608.45,88.2,673.14,133.74,733.63c46.53,61.8,79.76,118.33,90.16,161,4.25,17.47,4.68,32.64.64,44.9h-.43c4.07-12.21,3.65-27.34-.6-44.8-10.39-42.64-43.59-99.13-90.09-160.88C87.81,673.3,69.63,608.51,73.18,554.75,75,526.38,83,501.08,96.08,481.08s31.47-34.69,54.19-41.84c27.79-8.74,62.12-6.19,101.45,11.77,36.57,16.69,66.82,21.3,90.93,16.88a77.71,77.71,0,0,0,50.79-32.33c11.89-16.75,18.75-38.69,20.72-63.45,3.57-45-9-99.34-37.09-148.91-38-67.09-65.08-126.42-61.92-163.35S351.79,8.28,435,30.94C517.93,53.53,565,41.06,588.69-4.2,608.84-42.73,612.1-105,606.12-189.63Z"/></clipPath></defs><g class="cls-29"><path id="SVGID-41" data-name="SVGID" class="cls-28" d="M708.78,518.94c-41.67.49-72.92,12.26-94,31.24-17.63,15.85-28.19,36.75-31.83,60.31s-.35,49.8,9.68,76.32c17.8,47,56.83,94.94,116.17,130.52v.47c-59.54-35.64-98.7-83.69-116.54-130.85-10.07-26.59-13.36-52.89-9.71-76.53s14.25-44.62,32-60.54c21.17-19,52.51-30.85,94.29-31.35Zm0-459-4.44.75c-84.77,13.82-109.14,40.74-96.77,75.46,10.86,30.47,49.89,67,101.21,105.92v.5c-51.5-39.07-90.69-75.69-101.59-106.28-12.47-35,12-62.12,97.08-76l4.51-.76Z"/><g class="cls-30"><g class="cls-31"><rect class="cls-28" x="578.88" y="59.51" width="129.9" height="758.3"/></g></g><path id="SVGID-42" data-name="SVGID" class="cls-28" d="M708.78,518.39q-3.69,0-7.51-.11c-43.11-1.18-75.63,9.82-97.73,28.65-18,15.38-29.16,36-33.43,59.43s-1.7,49.77,7.63,76.55c17.68,50.81,59.64,103.3,125.17,141.23l5.87,3.42V828l-6.08-3.54c-65.62-38-107.63-90.56-125.35-141.44-9.34-26.85-11.92-53.23-7.64-76.76s15.44-44.23,33.57-59.67c22.17-18.89,54.78-29.93,98-28.74,2.55.07,5,.1,7.5.11Zm0-458.75-2.55.36C621.12,71.54,596,97.79,607.47,132.84c10.23,31.35,49.58,69.75,101.31,111v.52C656.87,203,617.36,164.45,607.09,133c-11.53-35.33,13.63-61.78,99.08-73.37l2.61-.37Z"/><g class="cls-32"><g class="cls-33"><rect class="cls-28" x="565.43" y="59.23" width="143.35" height="768.8"/></g></g><path id="SVGID-43" data-name="SVGID" class="cls-28" d="M708.78,518.2q-8.64.12-18-.38c-43.07-2.35-75.87,7.78-98.47,26-18.46,14.88-30.12,35.18-35,58.51s-3,49.71,5.57,76.73c16.32,51.26,56.85,104.86,121.34,144.53q12.66,7.78,24.58,15.57v.48q-12-7.85-24.8-15.7c-64.57-39.74-105.16-93.41-121.5-144.76-8.62-27.08-10.5-53.53-5.58-76.93s16.62-43.8,35.16-58.75c22.67-18.29,55.56-28.45,98.74-26.1q9.36.51,18,.38Zm0-458.46-.75.09C622.64,69.08,596.87,94.65,607.36,130c9.57,32.26,49.27,72.68,101.42,116.28v.53C656.44,203.07,616.59,162.51,607,130.11,596.4,94.48,622.25,68.72,708,59.43l.79-.09Z"/><g class="cls-34"><g class="cls-35"><rect class="cls-28" x="551.98" y="59.34" width="156.8" height="780.31"/></g></g><path id="SVGID-44" data-name="SVGID" class="cls-28" d="M708.78,518.26a244.17,244.17,0,0,1-28.59-.75c-43-3.49-76.05,5.75-99.13,23.36-18.85,14.39-31,34.37-36.57,57.55S540.12,648,548,675.28C562.92,727,602,781.62,665.4,823c15.31,10,29.83,20,43.38,29.86v.5c-13.62-9.94-28.2-20-43.6-30-63.49-41.45-102.62-96.2-117.57-148-7.9-27.31-9.06-53.79-3.52-77.06s17.79-43.33,36.73-57.78c23.15-17.67,56.31-26.95,99.4-23.44a245.86,245.86,0,0,0,28.56.75Zm0-458c-84.84,7.06-111.07,31.87-101.57,67.35,8.9,33.21,49,75.76,101.57,121.87V250c-52.78-46.24-93-88.94-102-122.29-9.58-35.77,16.74-60.78,102-67.87Z"/><g class="cls-36"><g class="cls-37"><rect class="cls-28" x="538.55" y="59.83" width="170.23" height="793.53"/></g></g><path id="SVGID-45" data-name="SVGID" class="cls-28" d="M708.78,518.52a230.83,230.83,0,0,1-39.27-1.14c-42.88-4.66-76.17,3.69-99.72,20.68-19.23,13.88-32,33.52-38.1,56.55s-5.7,49.48,1.44,76.92c13.54,52.06,51.13,107.76,113.4,150.84,22.76,15.74,43.69,31.38,62.25,46.69v.52c-18.62-15.36-39.63-31.07-62.48-46.88-62.35-43.14-100-98.92-113.56-151.07-7.16-27.51-7.61-54-1.45-77.12s19-42.84,38.26-56.78c23.63-17,57-25.42,100-20.75a230.19,230.19,0,0,0,39.22,1.13Zm0-457.4c-83.74,5-110.24,29-101.75,64.52,8.18,34.18,48.69,79,101.75,127.76V254c-53.25-48.89-93.93-93.88-102.14-128.22-8.56-35.79,18-60,102.14-65Z"/><g class="cls-38"><g class="cls-39"><rect class="cls-28" x="525.13" y="60.72" width="183.65" height="808.86"/></g></g><path id="SVGID-46" data-name="SVGID" class="cls-28" d="M708.78,518.86c-14.65,1.47-31.29,1.09-50-1.46-42.74-5.8-76.25,1.65-100.24,18-19.6,13.36-32.85,32.65-39.61,55.51s-7,49.3-.62,76.93c12.13,52.4,48.22,109.09,109.31,153.82,31.08,22.77,58.62,45.23,81.2,66.73v.55c-22.61-21.56-50.25-44.1-81.44-67C566.17,777.19,530,720.42,517.87,667.93c-6.41-27.7-6.15-54.2.63-77.14s20.09-42.31,39.77-55.72C582.34,518.66,616,511.18,658.79,517c18.74,2.54,35.37,2.93,50,1.46Zm0-456.45c-82.71,3-109.47,26.21-102,61.71,7.43,35.21,48.43,82.48,102,134v.56C655,207,613.87,159.57,606.4,124.21,598.85,88.41,625.71,65,708.78,62Z"/><g class="cls-40"><g class="cls-41"><rect class="cls-28" x="511.46" y="62.01" width="197.32" height="826.93"/></g></g><path id="SVGID-47" data-name="SVGID" class="cls-28" d="M708.78,519.19c-17.2,2.55-37.44,2.22-60.92-1.61-42.56-7-76.26-.4-100.68,15.3-19.95,12.83-33.72,31.76-41.09,54.43s-8.34,49.1-2.69,76.88c10.73,52.72,45.28,110.35,105.14,156.71,40.92,31.69,75.48,62.67,100.24,91.22v.62C684,884.11,649.37,853,608.3,821.22c-59.95-46.43-94.55-104.15-105.29-157-5.67-27.85-4.7-54.34,2.7-77.09s21.22-41.76,41.25-54.64c24.5-15.75,58.29-22.32,101-15.36,23.46,3.83,43.68,4.16,60.85,1.6Zm0-455.07c-81.72,1-108.78,23.43-102.28,58.93,6.65,36.28,48.21,86.17,102.28,140.7v.57c-54.26-54.68-96-104.76-102.68-141.2-6.55-35.79,20.61-58.43,102.68-59.41Z"/><g class="cls-42"><g class="cls-43"><rect class="cls-28" x="497.34" y="63.71" width="211.44" height="849.02"/></g></g><path id="SVGID-48" data-name="SVGID" class="cls-28" d="M708.78,519.33c-19.5,4.14-43.36,4-71.9-1.41-42.36-8.09-76.22-2.45-101.06,12.59-20.28,12.28-34.56,30.84-42.53,53.3s-9.66,48.86-4.75,76.79c9.3,53,42.3,111.52,100.89,159.47,52.13,42.65,93.51,83.81,116.69,119.49h-.48C682.45,904,641.17,862.92,589.18,820.38c-58.68-48-91.72-106.64-101-159.71-4.92-28-3.23-54.46,4.77-77s22.33-41.18,42.7-53.51c24.92-15.09,58.88-20.76,101.35-12.65,28.53,5.45,52.36,5.54,71.82,1.4Zm0-453.09c-80.81-1-108.17,20.69-102.65,56.18,5.68,36.53,46,87.67,98.82,143.77q1.93,2.07,3.83,4.15v.6q-2-2.25-4.12-4.47c-52.82-56.16-93.23-107.37-98.93-144-5.56-35.78,21.9-57.64,103-56.65Z"/><g class="cls-44"><g class="cls-45"><rect class="cls-28" x="483.22" y="64.84" width="225.56" height="874.73"/></g></g><path id="SVGID-49" data-name="SVGID" class="cls-28" d="M708.78,519.1c-21.49,6.34-49,6.75-83-.69-42.14-9.22-76.14-4.49-101.37,9.87-20.61,11.74-35.37,29.9-43.95,52.14s-11,48.58-6.81,76.63c7.88,53.22,39.29,112.62,96.58,162.13,49.93,43.15,89.59,84.59,112.08,120.38h-.48c-22.48-35.7-62.06-77-111.86-120.08-57.37-49.57-88.82-109.07-96.72-162.37-4.16-28.12-1.77-54.52,6.84-76.83s23.43-40.57,44.12-52.35c25.32-14.41,59.41-19.16,101.65-9.92,34,7.44,61.46,7,82.9.67Zm0-450.32c-80-3-107.66,18-103.11,53.44,4.7,36.67,43.69,88.88,94.93,146.38q4.2,4.72,8.18,9.57v.64q-4.11-5-8.48-9.94C649,211.31,610,159,605.27,122.28c-4.58-35.77,23.2-56.86,103.51-53.9Z"/><g class="cls-46"><g class="cls-47"><rect class="cls-28" x="469.11" y="65.42" width="239.67" height="874.15"/></g></g><path id="SVGID-50" data-name="SVGID" class="cls-28" d="M708.78,518.23l-1.46.58c-23,8.82-53.62,9.9-92.73.23-41.87-10.34-76-6.53-101.59,7.16-20.92,11.17-36.16,28.94-45.33,50.94s-12.27,48.27-8.87,76.42C465.25,707,495.05,767.19,551,818.22c47.87,43.66,85.88,85.41,107.61,121.34h-.47c-21.73-35.85-59.66-77.49-107.41-121-56-51.09-85.86-111.41-92.32-164.9-3.41-28.23-.3-54.55,8.9-76.63s24.51-39.92,45.51-51.14c25.69-13.73,59.91-17.56,101.88-7.19,39,9.65,69.61,8.58,92.48-.21l1.61-.64Zm0-446.47C629.55,66.85,601.53,87,605.11,122.47c3.71,36.78,41.29,90,91,148.87q6.66,7.91,12.7,16.11v.68q-6.16-8.42-13-16.53C646,212.69,608.43,159.38,604.71,122.51c-3.61-35.75,24.52-56.08,104.07-51.16Z"/><g class="cls-48"><g class="cls-49"><rect class="cls-28" x="454.99" y="66.43" width="253.79" height="873.13"/></g></g><path id="SVGID-51" data-name="SVGID" class="cls-28" d="M708.78,516.35A84.81,84.81,0,0,1,696,522.09c-23.17,8.2-53.86,8.46-92.7-2.26-41.57-11.47-75.78-8.57-101.74,4.42-21.21,10.61-36.93,28-46.69,49.71s-13.55,47.92-10.91,76.15c5,53.56,33.19,114.57,87.74,167.08,45.9,44.18,82.33,86.27,103.26,122.37h-.47c-20.93-36-57.28-78-103.07-122.08-54.63-52.58-82.84-113.68-87.86-167.33-2.65-28.3,1.16-54.54,10.94-76.36s25.58-39.24,46.88-49.9c26-13,60.35-15.95,102-4.45,38.75,10.69,69.36,10.44,92.46,2.27a84.19,84.19,0,0,0,12.94-5.82Zm0-441.17c-78.57-6.87-106.95,12.51-104.34,48,2.73,36.87,38.86,91.09,86.94,151.26,6.25,7.83,12.06,15.88,17.4,24.07v.74q-8.14-12.54-17.72-24.56c-48.12-60.22-84.29-114.52-87-151.48-2.64-35.73,25.86-55.28,104.74-48.4Z"/><g class="cls-50"><g class="cls-51"><rect class="cls-28" x="440.88" y="67.89" width="267.9" height="871.67"/></g></g><path id="SVGID-52" data-name="SVGID" class="cls-28" d="M708.78,512.9a80.9,80.9,0,0,1-24.34,12.61c-23.39,7.57-54.07,7-92.6-4.75-41.26-12.58-75.53-10.6-101.83,1.69-21.49,10-37.67,26.95-48,48.43s-14.83,47.54-12.95,75.84c3.57,53.67,30.1,115.41,83.22,169.37,44,44.73,78.94,87.18,99.05,123.47h-.46C590.75,903.35,555.92,861,512,816.37c-53.19-54-79.76-115.86-83.33-169.63-1.89-28.36,2.62-54.48,13-76s26.62-38.55,48.2-48.63c26.39-12.33,60.76-14.32,102.11-1.71,38.45,11.73,69,12.3,92.37,4.75a80.21,80.21,0,0,0,24.46-12.73Zm0-433.85c-78-8.85-106.79,9.76-105.13,45.19,1.74,36.93,36.4,92.11,82.85,153.54a309,309,0,0,1,22.28,33.92v.82A304.8,304.8,0,0,0,686.17,278c-46.49-61.5-81.18-116.74-82.92-153.77-1.67-35.72,27.22-54.49,105.53-45.62Z"/><g class="cls-52"><g class="cls-53"><rect class="cls-28" x="426.76" y="69.77" width="282.02" height="869.79"/></g></g><path id="SVGID-53" data-name="SVGID" class="cls-28" d="M708.78,507a78.21,78.21,0,0,1-36.07,22.07c-23.58,7-54.24,5.55-92.44-7.23-40.9-13.68-75.21-12.62-101.84-1.05-21.75,9.46-38.37,25.94-49.28,47.13S413,615,414.16,643.37c2.13,53.75,27,116.18,78.65,171.54,42.26,45.3,75.68,88.14,94.94,124.65h-.46c-19.25-36.43-52.61-79.17-94.78-124.37-51.72-55.44-76.62-118-78.75-171.8-1.13-28.41,4.08-54.4,15-75.66s27.64-37.82,49.48-47.32c26.72-11.61,61.12-12.68,102.13,1,38.12,12.75,68.69,14.14,92.2,7.22a77.85,77.85,0,0,0,36.18-22.28Zm0-423.61c-77.55-10.86-106.76,7-106,42.39.74,37,33.91,93.05,78.69,155.71a305.16,305.16,0,0,1,27.36,46.41v.94a304.62,304.62,0,0,0-27.69-47.11c-44.82-62.72-78-118.88-78.76-155.94-.72-35.71,28.6-53.7,106.45-42.81Z"/><g class="cls-54"><g class="cls-55"><rect class="cls-28" x="412.63" y="72.08" width="296.15" height="867.48"/></g></g><path id="SVGID-54" data-name="SVGID" class="cls-28" d="M708.78,496.94a78.12,78.12,0,0,1-48,35.81c-23.76,6.3-54.36,4.09-92.21-9.71-40.52-14.78-74.85-14.64-101.78-3.78-22,8.87-39.05,24.89-50.53,45.78s-17.37,46.68-17,75c.68,53.79,23.86,116.87,74,173.6,40.58,45.89,72.57,89.15,90.94,125.89h-.45c-18.37-36.67-50.3-79.83-90.79-125.63-50.21-56.81-73.42-120-74.11-173.85-.36-28.43,5.54-54.27,17.06-75.23s28.65-37.06,50.73-46c27-10.89,61.44-11,102.07,3.78,37.76,13.77,68.29,16,92,9.69a77.71,77.71,0,0,0,48.09-36.2Zm0-408.75c-77.21-12.93-106.87,4.11-107.12,39.53-.25,37,31.4,93.93,74.49,157.77a303.49,303.49,0,0,1,32.63,63.13v1.16a301.92,301.92,0,0,0-33-64.06c-43.13-63.91-74.8-120.93-74.55-158,.24-35.71,30-52.9,107.52-39.94Z"/><g class="cls-56"><g class="cls-57"><rect class="cls-28" x="398.5" y="74.82" width="310.28" height="864.75"/></g></g><path id="SVGID-55" data-name="SVGID" class="cls-28" d="M708.78,478.13A102.4,102.4,0,0,1,698,501.47a78.12,78.12,0,0,1-49.31,35.09c-23.92,5.67-54.45,2.63-91.92-12.18-40.11-15.87-74.42-16.65-101.63-6.52-22.23,8.28-39.71,23.84-51.75,44.42s-18.61,46.19-19,74.54c-.76,53.79,20.71,117.46,69.32,175.52,38.95,46.52,69.56,90.22,87,127.22h-.44c-17.46-36.92-48-80.54-86.89-127C404.7,754.46,383.2,690.7,384,636.82c.4-28.43,7-54.1,19.06-74.75s29.64-36.27,52-44.58c27.3-10.17,61.71-9.39,101.92,6.51,37.38,14.78,67.84,17.81,91.68,12.16a77.73,77.73,0,0,0,49.06-34.91,102.4,102.4,0,0,0,11.14-24.46Zm0-384.64c-77-15.06-107.15,1.17-108.34,36.61C599.2,167,629.3,224.83,670.66,289.8a297.05,297.05,0,0,1,38.12,88.52v1.74a296,296,0,0,0-38.46-90c-41.4-65-71.53-122.89-70.28-159.94,1.2-35.72,31.48-52.11,108.74-37Z"/><g class="cls-58"><g class="cls-59"><rect class="cls-28" x="383.2" y="77.97" width="325.59" height="861.59"/></g></g><path id="SVGID-56" data-name="SVGID" class="cls-28" d="M708.78,99.29C631.9,82,601.2,97.42,599.05,132.88c-2.24,36.9,26.31,95.47,65.9,161.54,29.33,48.92,43.29,103,40.84,148.16-1.36,24.88-7.7,47.05-19.21,64.16a78.13,78.13,0,0,1-50.23,33.75c-24.06,5-54.51,1.17-91.56-14.65-39.67-16.93-73.95-18.63-101.42-9.23-22.44,7.67-40.34,22.76-52.92,43s-19.85,45.67-21,74c-2.2,53.75,17.56,118,64.59,177.32,37.38,47.17,66.64,91.35,83.18,128.62h-.44c-16.54-37.2-45.75-81.29-83.06-128.37-47.1-59.42-66.88-123.74-64.67-177.58,1.16-28.4,8.45-53.89,21.07-74.21s30.6-35.47,53.13-43.17c27.56-9.43,61.94-7.73,101.71,9.24,37,15.78,67.33,19.63,91.32,14.62a77.71,77.71,0,0,0,50-33.58c11.46-17,17.78-39.14,19.13-63.95,2.46-45.07-11.49-99.08-40.77-147.94-39.63-66.12-68.21-124.77-66-161.76,2.16-35.75,33-51.31,110.13-34Z"/><g class="cls-60"><g class="cls-61"><rect class="cls-28" x="366.83" y="81.55" width="341.95" height="858.01"/></g></g><path id="SVGID-57" data-name="SVGID" class="cls-28" d="M708.78,105.62c-76.9-19.61-108.19-5.05-111.3,30.45-3.23,36.83,23.74,96.15,61.54,163.25,28,49.69,40.51,104.14,36.84,149.21-2,24.84-9,46.83-20.91,63.62a78.21,78.21,0,0,1-51.12,32.39c-24.19,4.37-54.52-.3-91.14-17.1-39.2-18-73.42-20.62-101.14-12-22.63,7.07-40.93,21.67-54.05,41.57s-21.07,45.13-23,73.42c-3.64,53.67,14.38,118.41,59.8,179,35.88,47.86,63.82,92.55,79.41,130.1h-.44C477.69,902.08,449.8,857.47,414,809.7,368.51,749,350.46,684.21,354.11,630.45c1.92-28.37,9.89-53.65,23.05-73.62s31.54-34.63,54.27-41.73c27.81-8.69,62.13-6.06,101.43,12,36.53,16.77,66.78,21.43,90.9,17.07a77.74,77.74,0,0,0,50.86-32.23c11.91-16.73,18.82-38.65,20.84-63.41,3.66-45-8.83-99.36-36.79-149C620.83,232.35,593.84,173,597.08,136c3.13-35.78,34.54-50.49,111.7-30.83Z"/><g class="cls-62"><g class="cls-63"><rect class="cls-28" x="350.46" y="85.55" width="358.32" height="854.02"/></g></g><path id="SVGID-58" data-name="SVGID" class="cls-28" d="M708.78,112.5c-77.06-22.07-109-8.39-113.06,27.17-4.21,36.73,21.15,96.75,57.14,164.84,26.66,50.43,37.7,105.19,32.82,150.15-2.69,24.77-10.21,46.57-22.62,63a78.17,78.17,0,0,1-52,31c-24.3,3.72-54.49-1.76-90.64-19.54-38.7-19-72.84-22.58-100.78-14.67-22.82,6.46-41.5,20.56-55.15,40.11s-22.27,44.54-24.95,72.77c-5.09,53.55,11.19,118.75,55,180.52,34.43,48.59,61.06,93.82,75.69,131.67h-.44c-14.61-37.79-41.21-82.94-75.58-131.43-43.84-61.87-60.14-127.16-55-180.8,2.69-28.3,11.33-53.36,25-73s32.46-33.77,55.37-40.26c28-7.94,62.27-4.39,101.07,14.69C556.7,546.54,586.81,552,611,548.3a77.74,77.74,0,0,0,51.71-30.86c12.36-16.4,19.86-38.13,22.54-62.83,4.87-44.88-6.16-99.55-32.78-149.91-36-68.16-61.4-128.25-57.18-165.07,4.11-35.84,36.15-49.67,113.46-27.55Z"/><g class="cls-64"><g class="cls-65"><rect class="cls-28" x="334.07" y="89.96" width="374.71" height="849.6"/></g></g><path id="SVGID-59" data-name="SVGID" class="cls-28" d="M708.78,120c-77.35-24.67-110-11.91-115,23.72-5.19,36.6,18.55,97.28,52.7,166.31,25.29,51.13,34.86,106.17,28.77,151-3.35,24.7-11.45,46.28-24.3,62.41A78.15,78.15,0,0,1,598.15,553c-24.39,3.07-54.43-3.22-90.09-22-38.17-20.07-72.21-24.52-100.35-17.37-23,5.85-42,19.45-56.21,38.61S328,596.17,324.61,624.31c-6.52,53.4,8,119,50.1,181.94,33,49.34,58.38,95.15,72,133.31h-.43c-13.63-38.1-39-83.83-71.91-133.09-42.16-63-56.71-128.72-50.17-182.2,3.44-28.22,12.75-53,27-72.27s33.35-32.9,56.43-38.77c28.23-7.18,62.37-2.71,100.64,17.4,35.58,18.71,65.54,25,89.85,21.93a77.72,77.72,0,0,0,52.51-29.46c12.8-16.06,20.88-37.58,24.22-62.2,6.08-44.73-3.48-99.68-28.74-150.74-34.18-69.1-57.94-129.85-52.73-166.55,5.1-35.9,37.83-48.81,115.42-24.09Z"/><g class="cls-66"><g class="cls-67"><rect class="cls-28" x="317.68" y="94.8" width="391.11" height="844.76"/></g></g><path id="SVGID-60" data-name="SVGID" class="cls-28" d="M708.78,128C631,100.53,597.65,112.33,591.6,148.06c-6.18,36.44,15.92,97.74,48.21,167.67,23.91,51.78,32,107.06,24.71,151.69-4,24.59-12.7,45.95-26,61.72A78.1,78.1,0,0,1,585,557.32c-24.47,2.41-54.32-4.68-89.46-24.38-37.63-21.08-71.53-26.45-99.85-20.05-23.14,5.22-42.55,18.3-57.23,37.08s-24.63,43.29-28.82,71.33c-7.95,53.21,4.81,119.18,45.21,183.22,31.63,50.14,55.73,96.55,68.34,135h-.42c-12.61-38.42-36.68-84.76-68.27-134.83C314,740.61,301.27,674.54,309.23,621.24c4.2-28.11,14.18-52.67,28.91-71.51s34.22-32,57.45-37.24c28.41-6.42,62.41-1,100.13,20.1,35.07,19.65,64.84,26.73,89.23,24.33a77.73,77.73,0,0,0,53.29-28c13.22-15.71,21.88-37,25.88-61.53,7.27-44.55-.81-99.74-24.68-151.45C607.12,245.9,585,184.53,591.2,148c6.1-36,39.56-47.94,117.58-20.44Z"/><g class="cls-68"><g class="cls-69"><rect class="cls-28" x="301.27" y="100.05" width="407.51" height="839.52"/></g></g><path id="SVGID-61" data-name="SVGID" class="cls-28" d="M708.78,136.65c-78.36-30.44-112.5-19.65-119.57,16.19C582.05,189.1,602.5,251,632.9,321.74,655.41,374.15,662,429.62,653.53,474c-4.68,24.47-13.93,45.6-27.62,61a78.16,78.16,0,0,1-54.29,26.72c-24.53,1.76-54.18-6.14-88.78-26.77-37-22.09-70.79-28.36-99.28-22.73-23.26,4.61-43,17.16-58.19,35.54s-25.79,42.61-30.73,70.53c-9.38,53,1.6,119.26,40.27,184.36,30.28,51,53.13,98,64.7,136.86h-.42c-11.57-38.76-34.39-85.74-64.63-136.65-38.72-65.19-49.71-131.58-40.32-184.64,5-28,15.58-52.27,30.81-70.72s35.08-31,58.44-35.68c28.57-5.65,62.42.64,99.55,22.79,34.53,20.58,64.1,28.46,88.55,26.71a77.75,77.75,0,0,0,54-26.59c13.64-15.36,22.86-36.41,27.52-60.82,8.47-44.34,1.87-99.72-20.61-152.06-30.42-70.84-50.88-132.78-43.71-169.14,7.12-36.11,41.39-47,120-16.55Z"/><g class="cls-70"><g class="cls-71"><rect class="cls-28" x="284.85" y="105.72" width="423.93" height="833.84"/></g></g><path id="SVGID-62" data-name="SVGID" class="cls-28" d="M708.78,146l-.08,0c-79-33.62-114-23.9-122.12,12.07s10.66,98.45,39.14,170c21.1,53,26.21,108.63,16.54,152.8C636.93,505.15,627.12,526,613,541.05a78.12,78.12,0,0,1-55,25.26c-24.56,1.1-54-7.59-88-29.14-36.43-23.08-70-30.26-98.62-25.39-23.38,4-43.47,16-59.14,34s-26.91,41.91-32.61,69.68c-10.79,52.7-1.59,119.27,35.31,185.38,28.95,51.88,50.56,99.61,61.06,138.76h-.41c-10.51-39.09-32.09-86.76-61-138.56-37-66.21-46.16-132.87-35.35-185.66,5.7-27.85,17-51.84,32.7-69.86s35.89-30.1,59.37-34.1c28.72-4.88,62.38,2.31,98.91,25.45,34,21.5,63.31,30.17,87.79,29.08a77.74,77.74,0,0,0,54.72-25.13c14-15,23.83-35.79,29.14-60.06,9.66-44.1,4.56-99.64-16.51-152.56C596.84,256.53,578,194.07,586.19,157.91s43.29-46.1,122.59-12.39Z"/><g class="cls-72"><g class="cls-73"><rect class="cls-28" x="268.42" y="111.81" width="440.36" height="827.76"/></g></g><path id="SVGID-63" data-name="SVGID" class="cls-28" d="M708.78,156l-2.66-1.2C628,119,592.79,127.8,583.72,163.53s8,98.71,34.56,171c19.67,53.54,23.28,109.29,12.43,153.18-6,24.19-16.35,44.79-30.85,59.44a78.12,78.12,0,0,1-55.65,23.77c-24.58.44-53.77-9-87.22-31.49-35.8-24.05-69.16-32.13-97.91-28-23.48,3.35-43.88,14.83-60,32.36s-28,41.17-34.47,68.78c-12.2,52.39-4.8,119.18,30.32,186.26,27.64,52.82,48,101.26,57.41,140.75h-.42c-9.4-39.44-29.74-87.81-57.35-140.56C259.39,731.83,252,664.94,264.2,612.46c6.45-27.68,18.37-51.36,34.56-69S335.45,514.37,359,511c28.83-4.11,62.29,4,98.19,28.09,33.37,22.41,62.48,31.87,87,31.43a77.76,77.76,0,0,0,55.37-23.65c14.45-14.6,24.79-35.13,30.75-59.25,10.83-43.83,7.22-99.49-12.42-152.95-26.57-72.37-43.68-135.32-34.57-171.25s44.53-44.93,123-9.05l2.49,1.13Z"/><g class="cls-74"><g class="cls-75"><rect class="cls-28" x="251.97" y="118.5" width="456.81" height="821.06"/></g></g><path id="SVGID-64" data-name="SVGID" class="cls-28" d="M708.78,166.62q-2.76-1.31-5.58-2.68c-77.12-37.81-112.57-30-122.59,5.5s5.35,98.88,30,171.87c18.22,54.05,20.33,109.87,8.31,153.46-6.63,24-17.55,44.33-32.44,58.59a78.13,78.13,0,0,1-56.27,22.27c-24.59-.22-53.51-10.48-86.34-33.83-35.14-25-68.28-34-97.12-30.64-23.56,2.72-44.26,13.64-60.87,30.74s-29.13,40.39-36.3,67.83c-13.61,52-8,119,25.3,187,26.35,53.8,45.46,103,53.74,142.83h-.42c-8.28-39.78-27.37-88.91-53.68-142.65-33.35-68.09-39-135.15-25.33-187.28,7.19-27.51,19.74-50.86,36.4-68s37.46-28.13,61.11-30.86c28.94-3.34,62.17,5.65,97.41,30.71,32.75,23.3,61.6,33.53,86.1,33.75a77.77,77.77,0,0,0,56-22.15c14.83-14.21,25.72-34.45,32.33-58.41,12-43.51,9.89-99.25-8.31-153.22-24.62-73.06-40-136.45-30-172.11s45.72-43.72,123.15-5.75c1.82.89,3.62,1.75,5.41,2.6Z"/><g class="cls-76"><g class="cls-77"><rect class="cls-28" x="235.52" y="125.61" width="473.27" height="813.96"/></g></g><path id="SVGID-65" data-name="SVGID" class="cls-28" d="M708.78,178q-4.37-2.16-8.86-4.51c-76.07-39.87-111.72-33-122.69,2.2s2.7,99,25.33,172.61c16.77,54.53,17.38,110.39,4.19,153.64-7.27,23.83-18.73,43.84-34,57.69a78,78,0,0,1-56.84,20.75c-24.57-.88-53.21-11.9-85.4-36.13-34.46-25.93-67.34-35.79-96.27-33.24-23.62,2.08-44.61,12.45-61.67,29.1s-30.2,39.6-38.11,66.83c-15,51.66-11.19,118.74,20.27,187.61,25.06,54.85,42.91,104.82,50,145h-.41c-7.12-40.13-25-90-50-144.83-31.51-69-35.32-136.15-20.3-187.9,7.93-27.29,21.1-50.3,38.22-67s38.2-27.12,61.92-29.21c29-2.56,62,7.32,96.54,33.32,32.12,24.17,60.68,35.17,85.17,36a77.71,77.71,0,0,0,56.56-20.65c15.21-13.8,26.64-33.74,33.88-57.51,13.17-43.18,12.56-98.95-4.18-153.4C579.52,274.74,565.82,211,576.85,175.58s46.88-42.47,123.26-2.44c2.93,1.54,5.82,3,8.67,4.42Z"/><g class="cls-78"><g class="cls-79"><rect class="cls-28" x="219.05" y="133.11" width="489.74" height="806.46"/></g></g><path id="SVGID-66" data-name="SVGID" class="cls-28" d="M708.78,190.12q-6.12-3.15-12.49-6.71c-75-41.89-110.79-36-122.7-1.09s0,99,20.68,173.23c15.3,55,14.41,110.81.07,153.69-7.91,23.63-19.91,43.33-35.54,56.77a78.14,78.14,0,0,1-57.38,19.21c-24.54-1.54-52.87-13.33-84.4-38.41C383.27,520,350.66,509.22,321.68,511c-23.67,1.45-44.93,11.24-62.43,27.43S228,577.2,219.36,604.21C203,655.45,205,722.61,234.59,792.3c23.76,55.94,40.34,106.74,46.25,147.26h-.41c-5.91-40.47-22.47-91.21-46.21-147.1C204.57,722.68,202.57,655.41,219,604.09c8.65-27.08,22.44-49.72,40-66s38.91-26.08,62.68-27.54c29.07-1.77,61.77,9,95.61,35.91,31.46,25,59.71,36.78,84.17,38.32a77.76,77.76,0,0,0,57.1-19.12c15.57-13.39,27.53-33,35.41-56.59,14.33-42.8,15.21-98.57-.06-153.45-20.67-74.27-32.66-138.39-20.69-173.47s48-41.2,123.29.87q6.27,3.51,12.29,6.6Z"/><g class="cls-80"><g class="cls-81"><rect class="cls-28" x="202.57" y="140.99" width="506.22" height="798.57"/></g></g><path id="SVGID-67" data-name="SVGID" class="cls-28" d="M539.09-189.63c14.27,42.06,20.57,76.87,16.84,104.77C549.12-34,509-6.07,423.16,1.08c-85.59,7.14-112,32.06-102.38,67.65s55.36,82.11,113.93,132.12c43.39,37,73.86,83.86,85.91,127.44,6.65,24,7.7,47,2.24,66.93a78.1,78.1,0,0,1-36.86,48c-21.21,12.43-51.3,18.48-91.46,15.29-43-3.41-76,5.9-99.08,23.56-18.82,14.42-31,34.43-36.46,57.62s-4.26,49.62,3.67,76.85c15,51.65,54.22,106.23,117.7,147.5,64.86,42.16,115.43,83.91,139.8,120.48,11.7,17.56,17.37,33.94,15.69,48.59a42.61,42.61,0,0,1-1.25,6.46h-.42a40.6,40.6,0,0,0,1.27-6.5c1.67-14.56-4-30.84-15.63-48.33C495.49,848.22,445,806.5,380.15,764.37c-63.57-41.32-102.81-96-117.87-147.73-7.95-27.29-9.16-53.77-3.67-77s17.7-43.37,36.61-57.85c23.12-17.72,56.25-27.06,99.36-23.64,40.07,3.18,70.07-2.85,91.21-15.24a77.75,77.75,0,0,0,36.68-47.75c5.44-19.8,4.39-42.77-2.24-66.72-12-43.5-42.46-90.25-85.78-127.23-58.63-50.06-104.4-96.54-114.06-132.33s16.8-61,102.74-68.15c85.65-7.14,125.62-34.95,132.4-85.59,3.73-27.87-2.59-62.66-16.86-104.72Z"/><g class="cls-82"><rect class="cls-28" x="253.12" y="-189.63" width="306.54" height="1129.19"/></g><path id="SVGID-68" data-name="SVGID" class="cls-28" d="M545.28-189.63C559-146,564.7-110.15,560.13-81.78c-8.17,50.65-49,77.5-135,82.35-85.75,4.83-112.81,29-104.16,64.87S374.07,149,431.28,200.57c42.38,38.18,71.58,85.81,82.46,129.7,6,24.18,6.43,47.24.44,67a78.12,78.12,0,0,1-38.14,47c-21.53,11.86-51.77,17.09-91.83,12.83-42.89-4.57-76.17,3.85-99.68,20.89-19.2,13.91-31.9,33.58-38,56.62s-5.59,49.49,1.6,76.92c13.64,52,51.35,107.65,113.7,150.61C425.55,806,475,849.07,498.35,886.28c11.23,17.87,16.46,34.39,14.39,49q-.32,2.18-.84,4.29h-.41a42.12,42.12,0,0,0,.85-4.34c2.06-14.51-3.15-30.94-14.33-48.73-23.35-37.16-72.73-80.21-136.4-124.07-62.43-43-100.2-98.72-113.86-150.84-7.21-27.49-7.72-54-1.6-77.12s18.86-42.88,38.14-56.85c23.59-17.09,57-25.54,100-21,40,4.25,70.13-1,91.6-12.78a77.72,77.72,0,0,0,37.94-46.75c6-19.65,5.54-42.64-.44-66.76-10.86-43.81-40-91.36-82.34-129.49-57.26-51.61-101.77-99.31-110.46-135.34S339,5,425.08.16c85.81-4.83,126.51-31.57,134.65-82,4.57-28.34-1.13-64.17-14.87-107.79Z"/><g class="cls-83"><rect class="cls-28" x="240.03" y="-189.63" width="324.67" height="1129.19"/></g><path id="SVGID-69" data-name="SVGID" class="cls-28" d="M551.21-189.63c13.26,45.47,18.36,82.54,12.89,111.48C554.58-27.74,513.05-2,426.91.54c-85.85,2.53-113.55,26-105.86,62.05s50.86,85,106.68,138C469.06,240,497,288.34,506.67,332.5c5.34,24.34,5.16,47.4-1.36,66.95a78.12,78.12,0,0,1-39.38,45.95c-21.85,11.28-52.22,15.7-92.15,10.36-42.75-5.71-76.24,1.81-100.2,18.2-19.57,13.4-32.79,32.72-39.5,55.59s-6.92,49.32-.47,76.93c12.24,52.39,48.45,109,109.62,153.61,62.51,45.58,110.76,90,133.13,127.81,10.75,18.16,15.53,34.82,13.06,49.36-.13.78-.28,1.54-.45,2.3h-.42c.18-.78.34-1.57.48-2.36,2.44-14.45-2.32-31-13-49.1C453.67,850.33,405.46,806,343,760.41,281.73,715.74,245.48,659,233.22,606.57c-6.47-27.68-6.26-54.18.47-77.13s20-42.36,39.66-55.81c24-16.45,57.63-24,100.48-18.27,39.85,5.33,70.13.92,91.91-10.32a77.71,77.71,0,0,0,39.19-45.71c6.49-19.49,6.67-42.47,1.34-66.74-9.68-44.09-37.55-92.41-78.82-131.66-55.87-53.13-99.07-102-106.8-138.26S340.7,2.67,426.9.13C512.81-2.4,554.22-28,563.7-78.23c5.46-28.89.36-65.94-12.91-111.4Z"/><g class="cls-84"><rect class="cls-28" x="226.75" y="-189.63" width="342.82" height="1129.19"/></g><path id="SVGID-70" data-name="SVGID" class="cls-28" d="M556.92-189.63C569.74-142,574.25-103.57,567.84-74,557-23.84,514.76.77,428.59,1c-85.89.22-114.21,22.93-107.5,59.18S369.66,146.49,424,201c40.26,40.41,66.86,89.53,75.37,133.94,4.69,24.47,3.88,47.52-3.16,66.9a78.12,78.12,0,0,1-40.6,44.87C433.5,457.43,403,461,363.25,454.63c-42.58-6.86-76.26-.24-100.65,15.51-19.93,12.86-33.66,31.82-41,54.5s-8.24,49.12-2.53,76.89c10.83,52.7,45.5,110.26,105.45,156.5C385.8,805.27,432.84,851,454.19,889.36c10.26,18.45,14.59,35.23,11.74,49.7,0,.17-.07.34-.11.5h-.41l.12-.58c2.83-14.37-1.48-31.06-11.69-49.42-21.32-38.36-68.33-84-129.54-131.21-60-46.31-94.76-104-105.61-156.74-5.72-27.84-4.8-54.33,2.54-77.09s21.14-41.81,41.15-54.72c24.47-15.81,58.25-22.45,100.94-15.57,39.68,6.39,70.08,2.8,92.15-7.84a77.75,77.75,0,0,0,40.39-44.65c7-19.31,7.82-42.28,3.14-66.68-8.49-44.34-35.06-93.38-75.26-133.73-54.42-54.61-96.29-104.63-103-141.07S342.35.82,428.59.59c85.95-.22,128-24.73,138.85-74.66,6.41-29.54,1.89-68-10.94-115.56Z"/><g class="cls-85"><rect class="cls-28" x="212.97" y="-189.63" width="361.28" height="1129.19"/></g><path id="SVGID-71" data-name="SVGID" class="cls-28" d="M562.42-189.63c12.41,50,16.33,90.05,8.9,120.36C559.1-19.44,516.26,4,430.11,1.94c-85.86-2.08-114.78,19.86-109,56.28s46.24,87.57,99.12,143.57c39.16,41.47,64.44,91.29,71.75,135.91,4,24.6,2.61,47.61-4.95,66.79a78.13,78.13,0,0,1-41.79,43.77c-22.42,10.08-53,12.87-92.57,5.39-42.38-8-76.23-2.29-101,12.8-20.26,12.33-34.49,30.91-42.42,53.39s-9.56,48.87-4.6,76.79c9.41,53,42.52,111.44,101.22,159.27,60,48.87,105.76,95.81,126.07,134.77,9.51,18.24,13.44,34.74,10.63,48.89h-.41c2.82-14.07-1.09-30.51-10.58-48.7-20.28-38.92-66-85.81-126-134.64-58.77-47.9-91.93-106.46-101.36-159.52-5-28-3.34-54.44,4.62-77s22.25-41.22,42.59-53.59c24.89-15.14,58.84-20.88,101.32-12.85,39.5,7.45,70,4.68,92.33-5.37a77.72,77.72,0,0,0,41.58-43.55c7.53-19.11,8.95-42,4.93-66.57-7.3-44.55-32.54-94.29-71.65-135.7C367,146,326.44,94.89,320.67,58.28S343.91-.56,430.12,1.54C516,3.62,558.76-19.75,570.93-69.37c7.42-30.26,3.49-70.29-8.92-120.26Z"/><g class="cls-86"><rect class="cls-28" x="199.19" y="-189.63" width="379.56" height="1129.19"/></g><path id="SVGID-72" data-name="SVGID" class="cls-28" d="M567.75-189.63c12,52.67,15.3,94.5,6.79,125.59-13.55,49.49-57,71.8-143.07,67.4C345.69-1,316.19,20.13,321,56.69s43.86,88.79,95.22,146.18c38,42.51,62,93,68.08,137.79,3.37,24.69,1.33,47.66-6.74,66.63a78.13,78.13,0,0,1-42.95,42.63c-22.69,9.48-53.31,11.45-92.68,2.91-42.16-9.14-76.14-4.33-101.35,10.08-20.58,11.78-35.31,30-43.84,52.23s-10.87,48.6-6.66,76.65c8,53.19,39.52,112.53,96.91,161.92,58.63,50.46,103.15,98.61,122.41,138.11,8.71,17.87,12.26,34,9.61,47.74h-.41c2.66-13.68-.87-29.74-9.57-47.56-19.23-39.45-63.71-87.55-122.3-138-57.47-49.46-89.05-108.89-97.05-162.17-4.22-28.12-1.88-54.52,6.68-76.85s23.35-40.61,44-52.44C265.62,448.1,299.7,443.28,342,452.44c39.29,8.51,69.83,6.56,92.44-2.89a77.74,77.74,0,0,0,42.74-42.42c8-18.89,10.07-41.79,6.71-66.41-6.1-44.73-30-95.13-68-137.58-51.4-57.45-90.54-109.64-95.32-146.4S345.36-1.45,431.49,3c85.83,4.39,129.17-17.83,142.66-67.1,8.5-31,5.17-72.85-6.82-125.49Z"/><g class="cls-87"><rect class="cls-28" x="185.41" y="-189.63" width="397.64" height="1129.19"/></g><path id="SVGID-73" data-name="SVGID" class="cls-28" d="M572.91-189.63c11.55,55.64,14.24,99.41,4.57,131.35C562.6-9.17,518.56,12,432.65,5.26,347-1.43,317,18.93,320.74,55.6S362.2,145.53,412,204.29c36.88,43.51,59.45,94.61,64.35,139.56,2.71,24.78,0,47.68-8.52,66.43a78.15,78.15,0,0,1-44.08,41.46c-22.94,8.87-53.6,10-92.73.42-41.89-10.27-76-6.38-101.58,7.36-20.89,11.21-36.1,29-45.23,51S172.05,558.84,175.5,587C182.06,640.38,212,700.54,268,751.46c57.25,52,100.46,101.34,118.65,141.34,8,17.57,11.16,33.34,8.58,46.76h-.41c2.59-13.35-.57-29.07-8.54-46.59C368.15,853,325,803.74,267.75,751.76c-56.12-51-86.08-111.24-92.65-164.72-3.46-28.22-.42-54.55,8.74-76.65s24.43-40,45.41-51.23c25.67-13.78,59.87-17.68,101.87-7.39,39,9.56,69.62,8.43,92.48-.41a77.74,77.74,0,0,0,43.86-41.25C476,391.43,478.65,368.6,476,343.9c-4.9-44.88-27.43-95.9-64.26-139.35-49.84-58.81-87.56-112-91.35-148.91S346.7-1.86,432.68,4.85c85.69,6.7,129.6-14.35,144.41-63.24,9.66-31.89,7-75.63-4.59-131.24Z"/><g class="cls-88"><rect class="cls-28" x="171.64" y="-189.63" width="415.52" height="1129.19"/></g><path id="SVGID-74" data-name="SVGID" class="cls-28" d="M577.94-189.63C589-130.73,591-84.83,580.12-52,563.93-3.31,519.34,16.64,433.64,7.62c-85.42-9-116,10.56-113.22,47.32s39,91,87.24,151.08c35.7,44.49,56.88,96.18,60.58,141.25,2,24.83-1.23,47.66-10.31,66.17a78.12,78.12,0,0,1-45.18,40.26c-23.16,8.25-53.84,8.57-92.7-2.07-41.6-11.38-75.8-8.41-101.74,4.63-21.19,10.65-36.87,28-46.58,49.8S158.27,554,161,582.24c5.12,53.55,33.41,114.49,88.07,166.89,55.84,53.54,97.71,104,114.82,144.48,7.32,17.32,10.11,32.82,7.53,45.95H371c2.59-13.07-.19-28.51-7.49-45.79-17.09-40.42-58.93-90.85-114.73-144.35C194,697,165.69,635.91,160.56,582.27c-2.7-28.29,1.05-54.53,10.8-76.38s25.49-39.29,46.77-50c26-13.09,60.32-16.07,102-4.66,38.77,10.61,69.37,10.3,92.46,2.08a77.74,77.74,0,0,0,44.95-40.06c9-18.44,12.3-41.19,10.27-66-3.7-45-24.85-96.6-60.5-141C359.09,146.15,322.82,91.93,320,55S347.91-1.81,433.68,7.22c85.48,9,129.94-10.87,146.06-59.35,10.89-32.77,8.86-78.63-2.21-137.5Z"/><g class="cls-89"><rect class="cls-28" x="157.86" y="-189.63" width="433.18" height="1129.19"/></g><path id="SVGID-75" data-name="SVGID" class="cls-28" d="M582.86-189.63c10.51,62.45,11.83,110.66-.4,144.41C565,3,519.85,21.76,434.42,10.45,349.28-.83,318.17,17.89,320,54.71s36.58,92,83.16,153.37c34.49,45.43,54.28,97.68,56.76,142.82,1.38,24.88-2.51,47.62-12.08,65.87a78.13,78.13,0,0,1-46.24,39c-23.37,7.62-54.06,7.12-92.61-4.56-41.28-12.5-75.55-10.45-101.83,1.89-21.47,10.09-37.61,27-47.9,48.54s-14.75,47.57-12.81,75.86c3.69,53.66,30.34,115.35,83.57,169.2,54.38,55,94.88,106.59,110.9,147.51,6.71,17.14,9.12,32.42,6.47,45.31h-.42c2.67-12.82.27-28.06-6.43-45.17C324.51,853.53,284,802,229.7,747c-53.3-53.92-80-115.7-83.68-169.46-1.94-28.36,2.51-54.49,12.84-76.06s26.54-38.6,48.1-48.72c26.37-12.38,60.73-14.45,102.11-1.92,38.48,11.65,69.08,12.16,92.37,4.56a77.7,77.7,0,0,0,46-38.83c9.54-18.19,13.41-40.85,12-65.66-2.48-45.08-22.24-97.24-56.69-142.6-46.61-61.4-81.42-116.58-83.23-153.6S349-1.28,434.48,10.05c85.2,11.28,130.18-7.38,147.59-55.41,12.22-33.7,10.89-81.86.38-144.27Z"/><g class="cls-90"><rect class="cls-28" x="144.08" y="-189.63" width="450.62" height="1129.19"/></g><path id="SVGID-76" data-name="SVGID" class="cls-28" d="M587.69-189.63c9.87,66.3,10.43,117-3.22,151.69C565.69,9.81,520.09,27.34,435,13.73,350.19.17,318.59,18.05,319.4,54.91s34.09,93,79,155.55c33.26,46.34,51.64,99.09,52.92,144.29.7,24.91-3.79,47.53-13.85,65.52a78.1,78.1,0,0,1-47.27,37.78c-23.57,7-54.23,5.66-92.46-7-40.93-13.6-75.24-12.47-101.84-.84-21.73,9.5-38.32,26-49.19,47.23s-16,47.15-14.83,75.49c2.23,53.74,27.22,116.12,79,171.38,52.89,56.45,92,109.1,106.9,150.43,6.15,17,8.19,32.17,5.39,44.86h-.41c2.81-12.62.78-27.71-5.36-44.72-14.89-41.28-54-93.88-106.81-150.3-51.84-55.33-76.86-117.8-79.1-171.64-1.18-28.4,4-54.4,14.88-75.69s27.57-37.87,49.39-47.41c26.69-11.67,61.09-12.81,102.13.83,38.14,12.67,68.72,14,92.21,7a77.72,77.72,0,0,0,47-37.58c10-17.93,14.49-40.48,13.79-65.32-1.27-45.12-19.62-97.79-52.84-144.07C353.12,148.06,319.81,92,319,54.92S349.9-.28,435.06,13.33c84.87,13.57,130.34-3.87,149-51.42,13.63-34.64,13.06-85.28,3.19-151.54Z"/><g class="cls-91"><rect class="cls-28" x="130.29" y="-189.63" width="467.83" height="1129.19"/></g><path id="SVGID-77" data-name="SVGID" class="cls-28" d="M592.45-189.63c9.12,70.45,8.84,123.79-6.3,159.46C566.1,17.06,520,33.35,435.34,17.47,350.92,1.64,318.86,18.66,318.68,55.53s31.59,93.86,74.8,157.61c32,47.22,49,100.45,49,145.66,0,24.92-5.06,47.41-15.6,65.13a78.12,78.12,0,0,1-48.27,36.5c-23.75,6.36-54.36,4.2-92.24-9.53-40.55-14.69-74.87-14.48-101.78-3.57-22,8.92-39,25-50.44,45.89s-17.27,46.71-16.85,75.06c.79,53.79,24.09,116.82,74.36,173.45C243,799.58,280.7,853.25,294.5,895c5.63,17,7.28,32.06,4.28,44.59h-.42c3-12.47,1.37-27.47-4.25-44.46C280.33,853.43,242.69,799.81,191.37,742c-50.33-56.7-73.66-119.82-74.46-173.7-.42-28.42,5.44-54.28,16.91-75.26s28.57-37.12,50.64-46.07c27-10.95,61.42-11.17,102.07,3.56,37.79,13.7,68.32,15.85,92,9.52a77.74,77.74,0,0,0,48-36.32c10.5-17.65,15.58-40.07,15.55-64.92-.06-45.14-17-98.28-49-145.43-43.26-63.82-75-120.78-74.87-157.84S350.65,1.18,435.42,17.07c84.47,15.84,130.39-.37,150.35-47.4,15.13-35.61,15.39-88.9,6.27-159.3Z"/><g class="cls-92"><rect class="cls-28" x="116.49" y="-189.63" width="485.07" height="1129.19"/></g><path id="SVGID-78" data-name="SVGID" class="cls-28" d="M597.15-189.63c8.25,74.9,7.07,131.06-9.67,167.71-21.32,46.67-67.79,61.73-152,43.58-84-18.1-116.48-1.94-117.64,34.91s29.05,94.67,70.54,159.56c30.72,48.06,46.24,101.72,45.09,146.93-.64,24.91-6.34,47.25-17.34,64.68a78.13,78.13,0,0,1-49.24,35.19c-23.91,5.72-54.45,2.74-91.94-12-40.14-15.78-74.46-16.49-101.65-6.3-22.21,8.32-39.67,23.92-51.66,44.52s-18.52,46.23-18.86,74.58c-.65,53.79,21,117.42,69.68,175.38,49.78,59.21,86,113.88,98.67,155.95,5.14,17.08,6.41,32.09,3.13,44.5h-.42c3.29-12.35,2-27.33-3.1-44.38-12.66-42-48.85-96.64-98.59-155.81-48.79-58-70.42-121.77-69.77-175.64.34-28.43,6.88-54.12,18.91-74.79s29.57-36.33,51.87-44.69c27.28-10.22,61.69-9.51,101.93,6.31,37.41,14.7,67.88,17.68,91.71,12a77.73,77.73,0,0,0,49-35c11-17.37,16.65-39.64,17.29-64.48,1.15-45.13-14.35-98.71-45-146.7C346.48,151.4,316.23,93.6,317.4,56.55S351.23,3.09,435.53,21.26c84,18.1,130.36,3.12,151.58-43.35,16.71-36.58,17.88-92.69,9.64-167.54Z"/><g class="cls-93"><rect class="cls-28" x="101.7" y="-189.63" width="503.7" height="1129.19"/></g><path id="SVGID-79" data-name="SVGID" class="cls-28" d="M601.84-189.63c7.2,79.64,5,138.8-13.39,176.43C565.89,32.88,519,46.68,435.3,26.28,351.86,5.94,318.92,21.22,316.77,58s26.5,95.42,66.23,161.4c29.42,48.87,43.49,102.93,41.13,148.08-1.31,24.89-7.6,47.07-19.07,64.2a78.14,78.14,0,0,1-50.17,33.85c-24.05,5.08-54.5,1.28-91.59-14.46-39.7-16.85-74-18.48-101.44-9-22.42,7.72-40.29,22.84-52.83,43.12s-19.76,45.71-20.86,74.05C86.08,613,106,677.16,153.11,736.41,201.28,796.94,236,852.56,247.56,895c4.69,17.23,5.55,32.28,1.93,44.6h-.42c3.63-12.27,2.78-27.29-1.9-44.5-11.52-42.34-46.23-97.91-94.37-158.4-47.22-59.32-67.13-123.61-65-177.45,1.1-28.4,8.34-53.91,20.92-74.25s30.52-35.53,53-43.28c27.54-9.49,61.93-7.85,101.73,9,37,15.71,67.37,19.49,91.35,14.44a77.7,77.7,0,0,0,49.91-33.69c11.43-17.06,17.7-39.17,19-64,2.37-45.08-11.69-99.05-41.07-147.85C342.89,153.58,314.2,95,316.36,58s35.25-52.54,119-32.11c83.5,20.35,130.22,6.62,152.68-39.27,18.39-37.56,20.56-96.66,13.35-176.25Z"/><g class="cls-94"><rect class="cls-28" x="85.67" y="-189.63" width="523.37" height="1129.19"/></g><path id="SVGID-80" data-name="SVGID" class="cls-28" d="M606.52-189.63c6,84.68,2.72,147-17.48,185.61-23.78,45.46-71,58-154.15,35.35C352,8.76,318.69,23.15,315.55,59.88S339.48,156,377.42,223c28.1,49.64,40.72,104.06,37.14,149.14-2,24.84-8.86,46.84-20.79,63.66a78.1,78.1,0,0,1-51,32.49c-24.18,4.43-54.52-.18-91.17-16.91-39.23-17.91-73.46-20.47-101.16-11.75-22.62,7.11-40.89,21.75-54,41.68s-21,45.17-22.84,73.46C70,608.45,88.2,673.14,133.74,733.63c46.53,61.8,79.76,118.33,90.16,161,4.25,17.47,4.68,32.64.64,44.9h-.43c4.07-12.21,3.65-27.34-.6-44.8-10.39-42.64-43.59-99.13-90.09-160.88C87.81,673.3,69.63,608.51,73.18,554.75,75,526.38,83,501.08,96.08,481.08s31.47-34.69,54.19-41.84c27.79-8.74,62.12-6.19,101.45,11.77,36.57,16.69,66.82,21.3,90.93,16.88a77.71,77.71,0,0,0,50.79-32.33c11.89-16.75,18.75-38.69,20.72-63.45,3.57-45-9-99.34-37.09-148.91-38-67.09-65.08-126.42-61.92-163.35S351.79,8.28,435,30.94C517.93,53.53,565,41.06,588.69-4.2,608.84-42.73,612.1-105,606.12-189.63Z"/><g class="cls-95"><rect class="cls-28" x="69.63" y="-189.63" width="542.87" height="1129.19"/></g></g></svg>