<svg xmlns="http://www.w3.org/2000/svg" xmlns:xlink="http://www.w3.org/1999/xlink" viewBox="0 0 244.95 236.55"><defs><style>.cls-1{fill:none;}.cls-2{fill:#fff;}.cls-3{clip-path:url(#clip-path);}.cls-4{stroke:#fff;stroke-miterlimit:10;stroke-width:0.32px;fill:url(#linear-gradient);}</style><clipPath id="clip-path"><path class="cls-1" d="M133.22,227.46a8.52,8.52,0,0,0,6.08-2.57l68.76-70a8.85,8.85,0,0,0,0-12.37,8.48,8.48,0,0,0-12.15,0l-68.76,70a8.85,8.85,0,0,0,0,12.37A8.46,8.46,0,0,0,133.22,227.46Z"/></clipPath><linearGradient id="linear-gradient" x1="114.64" y1="185.5" x2="216.42" y2="185.5" gradientUnits="userSpaceOnUse"><stop offset="0" stop-color="#f05b80"/><stop offset="1" stop-color="#4158f0"/></linearGradient></defs><g id="Layer_2" data-name="Layer 2"><g id="Layer_1-2" data-name="Layer 1"><path class="cls-2" d="M8.59,122.48H236.35a8.62,8.62,0,0,0,8-5.4,8.87,8.87,0,0,0-1.87-9.54L139.3,2.57a8.46,8.46,0,0,0-12.15,0,8.85,8.85,0,0,0,0,12.37l88.46,90H8.59a8.75,8.75,0,0,0,0,17.5Z"/><g class="cls-3"><rect class="cls-4" x="114.64" y="134.61" width="101.78" height="101.78" rx="10.64"/></g></g></g></svg>