<svg xmlns="http://www.w3.org/2000/svg" viewBox="0 0 86.21 75.35"><defs><style>.cls-1{fill:#fff;fill-rule:evenodd;}</style></defs><g id="Layer_2" data-name="Layer 2"><g id="Layer_1-2" data-name="Layer 1"><path class="cls-1" d="M80.8,16.3,59.41,0V10.89H26.83A26.73,26.73,0,0,0,0,38,30.65,30.65,0,0,0,2.73,50.27l9.17-6.45A18,18,0,0,1,10.52,38,16.61,16.61,0,0,1,26.83,21.4H59.41V32.28ZM74.34,31.9h0a16.63,16.63,0,0,1,1,6.13A15.91,15.91,0,0,1,59.41,54H26.83V43.12L5.44,59.42,26.83,75.35V64.84H59.41A27.07,27.07,0,0,0,86.21,38a31.29,31.29,0,0,0-3-12.9Z"/></g></g></svg>