<svg xmlns="http://www.w3.org/2000/svg" xmlns:xlink="http://www.w3.org/1999/xlink" viewBox="0 0 244.96 237.67"><defs><style>.cls-1{fill:none;}.cls-2{fill:#fff;}.cls-3{clip-path:url(#clip-path);}.cls-4{stroke:#fff;stroke-miterlimit:10;stroke-width:0.36px;fill:url(#linear-gradient);}</style><clipPath id="clip-path"><path class="cls-1" d="M111.74,227.46a8.5,8.5,0,0,1-6.08-2.57l-68.76-70a8.85,8.85,0,0,1,0-12.37,8.48,8.48,0,0,1,12.15,0l68.76,70a8.85,8.85,0,0,1,0,12.37A8.46,8.46,0,0,1,111.74,227.46Z"/></clipPath><linearGradient id="linear-gradient" x1="26.69" y1="183.72" x2="134.25" y2="183.72" gradientUnits="userSpaceOnUse"><stop offset="0" stop-color="#f05b80"/><stop offset="1" stop-color="#4158f0"/></linearGradient></defs><g id="Layer_2" data-name="Layer 2"><g id="Layer_1-2" data-name="Layer 1"><path class="cls-2" d="M236.37,122.48H8.6a8.62,8.62,0,0,1-7.95-5.4,8.87,8.87,0,0,1,1.87-9.54l103.13-105a8.46,8.46,0,0,1,12.15,0,8.85,8.85,0,0,1,0,12.37L29.35,105h207a8.75,8.75,0,0,1,0,17.5Z"/><g class="cls-3"><rect class="cls-4" x="26.69" y="129.94" width="107.56" height="107.56" rx="10.35"/></g></g></g></svg>