<svg xmlns="http://www.w3.org/2000/svg" xmlns:xlink="http://www.w3.org/1999/xlink" viewBox="0 0 277.53 258.21"><defs><style>.cls-1{fill:none;}.cls-2{fill:#fff;}.cls-3{clip-path:url(#clip-path);}.cls-4,.cls-6{stroke:#fff;stroke-miterlimit:10;stroke-width:0.42px;}.cls-4{fill:url(#linear-gradient);}.cls-5{clip-path:url(#clip-path-2);}.cls-6{fill:url(#linear-gradient-2);}</style><clipPath id="clip-path" transform="translate(8.76 6.13)"><path class="cls-1" d="M76.67,203.31V205a4.12,4.12,0,0,1-4.11,4.1H43.29v29.28a4.11,4.11,0,0,1-4.11,4.1h-1.7a4.11,4.11,0,0,1-4.1-4.1V209.11H4.1A4.12,4.12,0,0,1,0,205v-1.7a4.11,4.11,0,0,1,4.1-4.1H33.38V169.93a4.12,4.12,0,0,1,4.1-4.11h1.7a4.12,4.12,0,0,1,4.11,4.11v29.28H72.56A4.11,4.11,0,0,1,76.67,203.31Z"/></clipPath><linearGradient id="linear-gradient" x1="0.21" y1="210.7" x2="94.81" y2="210.7" gradientUnits="userSpaceOnUse"><stop offset="0" stop-color="#f05b80"/><stop offset="1" stop-color="#4158f0"/></linearGradient><clipPath id="clip-path-2" transform="translate(8.76 6.13)"><path class="cls-1" d="M72.62,46H102l95.24-34.44L209.75,46h10.77L205,3.36s-1.88-4.67-6.49-3Z"/></clipPath><linearGradient id="linear-gradient-2" x1="68.88" y1="38.43" x2="237.77" y2="38.43" xlink:href="#linear-gradient"/></defs><g id="Layer_2" data-name="Layer 2"><g id="Layer_1-2" data-name="Layer 1"><path id="SVGID" class="cls-2" d="M238.07,122.82V133H248.3V122.82Zm0,0V133H248.3V122.82ZM262.77,52a20.43,20.43,0,0,0-14.47-6V35.83a20.46,20.46,0,0,0-20.47-20.47H209.36L205,3.36a5.08,5.08,0,0,0-6.49-3l-41.44,15H53.85A20.46,20.46,0,0,0,33.38,35.83v97.23a5.11,5.11,0,0,0,5.11,5.12h0a5.11,5.11,0,0,0,5.11-5.12V53.46A20.27,20.27,0,0,0,53.85,56.3H248.3a10.23,10.23,0,0,1,10.23,10.23v40.94H238.07a20.47,20.47,0,0,0-20.46,21.23c.41,11.09,9.86,19.71,20.95,19.71h20v35.82a15.35,15.35,0,0,1-15.35,15.35H116.83a5.11,5.11,0,0,0-5.12,5.11h0a5.12,5.12,0,0,0,5.12,5.12H243.19a25.58,25.58,0,0,0,25.58-25.58V66.51A20.46,20.46,0,0,0,262.77,52Zm-190.33-6H53.21a10.24,10.24,0,1,1,.64-20.47h75L72.62,46C72.55,46,72.51,46.06,72.44,46.06ZM102,46l56.54-20.45,28.2-10.27,10.5-3.8,5.43,15L209.75,46Zm136.1,0H220.52l-7.44-20.45h14.75a10.26,10.26,0,0,1,10.24,10.24Zm20.46,92.13H238.07c-.21,0-.43,0-.64,0a10.24,10.24,0,1,1,.64-20.47h20.46ZM238.07,133H248.3V122.82H238.07Z" transform="translate(8.76 6.13)"/><g class="cls-3"><rect class="cls-4" x="0.21" y="163.4" width="94.6" height="94.6" rx="12"/></g><g class="cls-5"><rect class="cls-6" x="68.88" y="0.21" width="168.89" height="76.44" rx="12"/></g></g></g></svg>