<svg xmlns="http://www.w3.org/2000/svg" xmlns:xlink="http://www.w3.org/1999/xlink" viewBox="0 0 291.44 291.44"><defs><style>.cls-1{fill:none;clip-rule:evenodd;}.cls-2{clip-path:url(#clip-path);}.cls-3{stroke:#fff;stroke-miterlimit:10;stroke-width:0.42px;fill:url(#linear-gradient);}</style><clipPath id="clip-path" transform="translate(26.11 34.35)"><path class="cls-1" d="M235.39,184.19h0a25.58,25.58,0,0,1-25.59,25.58H25.59A25.58,25.58,0,0,1,0,184.19V35.79A20.47,20.47,0,0,1,20.47,15.32H123.69l41.44-15a5.07,5.07,0,0,1,6.49,3l4.36,12h18.47a20.47,20.47,0,0,1,20.47,20.47V46h0a20.48,20.48,0,0,1,20.47,20.47ZM20.47,25.55h0a10.24,10.24,0,1,0,0,20.47H39.06c.07,0,.11-.08.18-.1L95.43,25.55Zm148.79.93-5.43-15h0l-10.5,3.8h0L125.13,25.55h0L68.59,46H176.37Zm35.43,9.31a10.25,10.25,0,0,0-10.24-10.24H179.7L187.14,46h17.55Zm10.23,20.47H20.47a20.25,20.25,0,0,1-10.24-2.84V184.19a15.36,15.36,0,0,0,15.36,15.35H209.8a15.35,15.35,0,0,0,15.35-15.35V148.37H204.69a20.47,20.47,0,1,1,0-40.94h20.46V66.49A10.23,10.23,0,0,0,214.92,56.26Zm10.23,81.87V117.66H204.69a10.24,10.24,0,1,0,0,20.47Zm-20.46-15.35h10.23V133H204.69Z"/></clipPath><linearGradient id="linear-gradient" x1="0.21" y1="145.72" x2="291.23" y2="145.72" gradientUnits="userSpaceOnUse"><stop offset="0" stop-color="#f05b80"/><stop offset="1" stop-color="#4158f0"/></linearGradient></defs><g id="Layer_2" data-name="Layer 2"><g id="Home"><g class="cls-2"><rect class="cls-3" x="0.21" y="0.21" width="291.01" height="291.01"/></g></g></g></svg>